<?xml version="1.0" encoding="UTF-8"?><svg id="Layer_2" xmlns="http://www.w3.org/2000/svg" width="500" height="500" xmlns:xlink="http://www.w3.org/1999/xlink" viewBox="0 0 500 500"><defs><clipPath id="clippath"><path d="M151.99,168.83c5.69,12.64,63.23,11.68,100.58,11.68s84.91-1.28,93.15-8.57c8.24-7.29,0-32.66-8.88-34.88-8.88-2.22-41.85,4.76-84.65,4.76s-79.9-8.24-88.77-6.97c-8.88,1.27-15.26,25.49-11.43,33.99Z" fill="#518910"/></clipPath></defs><g id="Layer_1-2"><path d="M238.26,126.98c2.91,6.04,9.23,10.16,15.9,10.87,6.67.71,13.51-1.84,18.43-6.4,1.77,3.72,5.47,6.53,9.37,7.88,3.9,1.35,8.33,1.07,12.02-.76" fill="none" stroke="#2d0276" stroke-linecap="round" stroke-miterlimit="10" stroke-width="2.84"/><rect id="Layer_1-3" width="500" height="500" fill="none"/><path d="M361.99,227.87c4.29-2.07,7.58-6.11,8.73-10.73,1.15-4.62.15-9.73-2.67-13.57,6.56-1.66,10.88-9.37,8.86-15.84-1-3.21-3.25-5.89-5.73-8.16-6.36-5.86-14.59-9.67-23.17-10.73-11.49-1.43-23.46.76-34.88,2.67-.57.1-1.19.22-1.58.65-.36.41-.43.99-.48,1.53-1.06,12.95,2.61,26.12,9.63,37.05,4.18,6.5,9.62,12.33,16.39,16.06,6.77,3.73,17.92,4.43,24.88,1.07Z" fill="#ee692b"/><path d="M138.01,227.87c-4.29-2.07-7.58-6.11-8.73-10.73-1.15-4.62-.15-9.73,2.67-13.57-6.56-1.66-10.88-9.37-8.86-15.84,1-3.21,3.25-5.89,5.73-8.16,6.36-5.86,14.59-9.67,23.17-10.73,11.49-1.43,23.46.76,34.88,2.67.57.1,1.19.22,1.58.65.36.41.43.99.48,1.53,1.06,12.95-2.61,26.12-9.63,37.05-4.18,6.5-9.62,12.33-16.39,16.06-6.77,3.73-17.92,4.43-24.88,1.07Z" fill="#ee692b"/><path d="M168.23,164.99c-6.66,17.78-11.28,36.51-4.57,54.27,20.73,3.73,28.15-28.96,26.68-47.07" fill="#ee692b"/><path d="M331.77,164.99c6.66,17.78,11.28,36.51,4.57,54.27-20.73,3.73-28.15-28.96-26.68-47.07" fill="#ee692b"/><path d="M234.49,177.31c1.89,5.24,4.8,10.12,8.51,14.28,2.42,2.71,5.68,5.29,9.29,4.85.86-.11,1.76-.43,2.22-1.17.29-.48.36-1.06.4-1.61.33-4.49-.48-9.05-2.34-13.15,1.96,3.93,4.75,8.14,9.09,8.79,3.44.51,6.88-1.54,8.92-4.35,2.05-2.81,2.95-6.28,3.66-9.69" fill="#ee692b"/><g id="hair-color"><path d="M167.7,138.97s14.8-68.8,82.62-68.8,80.5,68.8,80.5,68.8l-78.95,18.65-84.17-18.65Z" fill="#7521c1"/></g><path d="M151.99,168.83c5.69,12.64,63.23,11.68,100.58,11.68s84.91-1.28,93.15-8.57c8.24-7.29,0-32.66-8.88-34.88-8.88-2.22-41.85,4.76-84.65,4.76s-79.9-8.24-88.77-6.97c-8.88,1.27-15.26,25.49-11.43,33.99Z" fill="#518910"/><g clip-path="url(#clippath)"><path d="M181.54,128.55c-8.18,20.42-12.54,42.37-12.79,64.37" fill="none" stroke="#262626" stroke-linecap="round" stroke-miterlimit="10" stroke-width="2.84"/><path d="M202.37,130.86c-4,18.75-5.75,37.98-5.19,57.14" fill="none" stroke="#262626" stroke-linecap="round" stroke-miterlimit="10" stroke-width="2.84"/><path d="M228.11,132.97c-4.12,21.24-4.9,43.12-2.3,64.6" fill="none" stroke="#262626" stroke-linecap="round" stroke-miterlimit="10" stroke-width="2.84"/><path d="M250.27,133.48c.69,19.03,1.38,38.07,2.07,57.1" fill="none" stroke="#262626" stroke-linecap="round" stroke-miterlimit="10" stroke-width="2.84"/><path d="M273.59,134.52c2.96,17.93,4.43,36.1,4.39,54.26" fill="none" stroke="#262626" stroke-linecap="round" stroke-miterlimit="10" stroke-width="2.84"/><path d="M297.13,137.09c2.99,14.57,4.97,29.35,5.93,44.19" fill="none" stroke="#262626" stroke-linecap="round" stroke-miterlimit="10" stroke-width="2.84"/><path d="M319.87,132.18c5.55,15.68,8.69,32.22,9.28,48.85" fill="none" stroke="#262626" stroke-linecap="round" stroke-miterlimit="10" stroke-width="2.84"/></g><path d="M258.7,70.18c0,3.97-3.22,7.18-7.18,7.18s-7.18-3.22-7.18-7.18,3.22-7.18,7.18-7.18,7.18,3.22,7.18,7.18Z" fill="#4f8816"/><path d="M212.81,93.18c1.01,1.62,2.01,3.23,3.02,4.85" fill="none" stroke="#f7d4e2" stroke-linecap="round" stroke-miterlimit="10" stroke-width="2.84"/><path d="M197.7,104.5c-.34,1.91-.69,3.82-1.03,5.74" fill="none" stroke="#f7d4e2" stroke-linecap="round" stroke-miterlimit="10" stroke-width="2.84"/><path d="M186.86,122.93c1.28,1.36,2.56,2.72,3.83,4.07" fill="none" stroke="#f7d4e2" stroke-linecap="round" stroke-miterlimit="10" stroke-width="2.84"/><path d="M214.17,123.17l1.92,4.07" fill="none" stroke="#f7d4e2" stroke-linecap="round" stroke-miterlimit="10" stroke-width="2.84"/><path d="M233.09,80.53c.08,1.6.16,3.19.24,4.79" fill="none" stroke="#f7d4e2" stroke-linecap="round" stroke-miterlimit="10" stroke-width="2.84"/><path d="M236.2,104.72c-.4,1.52-.8,3.03-1.2,4.55" fill="none" stroke="#f7d4e2" stroke-linecap="round" stroke-miterlimit="10" stroke-width="2.84"/><path d="M247.99,123.63c.55,1.76,1.09,3.52,1.64,5.28" fill="none" stroke="#f7d4e2" stroke-linecap="round" stroke-miterlimit="10" stroke-width="2.84"/><path d="M256.33,95.62c.8,1.12,1.6,2.24,2.4,3.35" fill="none" stroke="#f7d4e2" stroke-linecap="round" stroke-miterlimit="10" stroke-width="2.84"/><path d="M275.73,84.84c-.08,1.84-.16,3.67-.24,5.51" fill="none" stroke="#f7d4e2" stroke-linecap="round" stroke-miterlimit="10" stroke-width="2.84"/><path d="M269.5,116.22c.52,2.2.84,4.45.96,6.71" fill="none" stroke="#f7d4e2" stroke-linecap="round" stroke-miterlimit="10" stroke-width="2.84"/><path d="M291.78,101.13c1.16.72,2.22,1.61,3.11,2.64" fill="none" stroke="#f7d4e2" stroke-linecap="round" stroke-miterlimit="10" stroke-width="2.84"/><path d="M291.54,128.2c1.76-1.28,3.51-2.56,5.27-3.83" fill="none" stroke="#f7d4e2" stroke-linecap="round" stroke-miterlimit="10" stroke-width="2.84"/><path d="M310.71,116.46c.88,1.6,1.76,3.19,2.64,4.79" fill="none" stroke="#f7d4e2" stroke-linecap="round" stroke-miterlimit="10" stroke-width="2.84"/></g></svg>