<?xml version="1.0" encoding="UTF-8"?>
<svg id="Layer_2" xmlns="http://www.w3.org/2000/svg" version="1.1" xmlns:xlink="http://www.w3.org/1999/xlink" viewBox="0 0 500 500">
  <!-- Generator: Adobe Illustrator 29.2.0, SVG Export Plug-In . SVG Version: 2.1.0 Build 108)  -->
  <defs>
    <style>
      .st0 {
        fill: #ee692b;
      }

      .st1, .st2, .st3 {
        fill: none;
      }

      .st2 {
        stroke: #262626;
      }

      .st2, .st3 {
        stroke-miterlimit: 10;
        stroke-width: 2.8px;
      }

      .st4 {
        fill: #518910;
      }

      .st5 {
        fill: #7521c1;
      }

      .st3 {
        stroke: #f7d4e2;
        stroke-linecap: round;
      }

      .st6 {
        clip-path: url(#clippath);
      }

      .st7 {
        fill: #4f8816;
      }
    </style>
    <clipPath id="clippath">
      <path class="st1" d="M152,168.8c5.7,12.6,63.2,11.7,100.6,11.7s84.9-1.3,93.1-8.6c8.2-7.3,0-32.7-8.9-34.9s-41.9,4.8-84.6,4.8-79.9-8.2-88.8-7c-8.9,1.3-15.3,25.5-11.4,34h0Z"/>
    </clipPath>
  </defs>
  <g id="Layer_1-2">
    <rect id="Layer_1-3" class="st1" width="500" height="500"/>
    <g id="beanie-flaps-color">
      <path class="st0" d="M362,227.9c4.3-2.1,7.6-6.1,8.7-10.7,1.1-4.6.1-9.7-2.7-13.6,6.6-1.7,10.9-9.4,8.9-15.8-1-3.2-3.2-5.9-5.7-8.2-6.4-5.9-14.6-9.7-23.2-10.7-11.5-1.4-23.5.8-34.9,2.7-.6.1-1.2.2-1.6.6-.4.4-.4,1-.5,1.5-1.1,12.9,2.6,26.1,9.6,37.1,4.2,6.5,9.6,12.3,16.4,16.1,6.8,3.7,17.9,4.4,24.9,1.1h0Z"/>
      <path class="st0" d="M138,227.9c-4.3-2.1-7.6-6.1-8.7-10.7s-.1-9.7,2.7-13.6c-6.6-1.7-10.9-9.4-8.9-15.8,1-3.2,3.2-5.9,5.7-8.2,6.4-5.9,14.6-9.7,23.2-10.7,11.5-1.4,23.5.8,34.9,2.7.6.1,1.2.2,1.6.6.4.4.4,1,.5,1.5,1.1,12.9-2.6,26.1-9.6,37.1-4.2,6.5-9.6,12.3-16.4,16.1s-17.9,4.4-24.9,1.1h0Z"/>
      <path class="st0" d="M168.2,165c-6.7,17.8-11.3,36.5-4.6,54.3,20.7,3.7,28.1-29,26.7-47.1"/>
      <path class="st0" d="M331.8,165c6.7,17.8,11.3,36.5,4.6,54.3-20.7,3.7-28.1-29-26.7-47.1"/>
      <path class="st0" d="M234.5,177.3c1.9,5.2,4.8,10.1,8.5,14.3,2.4,2.7,5.7,5.3,9.3,4.9.9-.1,1.8-.4,2.2-1.2.3-.5.4-1.1.4-1.6.3-4.5-.5-9.1-2.3-13.1,2,3.9,4.8,8.1,9.1,8.8,3.4.5,6.9-1.5,8.9-4.4,2-2.8,3-6.3,3.7-9.7"/>
    </g>
    <g id="beanie-top-color">
      <path class="st5" d="M167.7,139s14.8-68.8,82.6-68.8,80.5,68.8,80.5,68.8l-78.9,18.6-84.2-18.6h0Z"/>
    </g>
    <g id="beanie-brim-color">
      <path class="st4" d="M152,168.8c5.7,12.6,63.2,11.7,100.6,11.7s84.9-1.3,93.1-8.6c8.2-7.3,0-32.7-8.9-34.9s-41.9,4.8-84.6,4.8-79.9-8.2-88.8-7c-8.9,1.3-15.3,25.5-11.4,34h0Z"/>
      <path class="st7" d="M258.7,70.2c0,4-3.2,7.2-7.2,7.2s-7.2-3.2-7.2-7.2,3.2-7.2,7.2-7.2,7.2,3.2,7.2,7.2Z"/>
    </g>
    <g class="st6">
      <g>
        <path class="st2" d="M178.8,135.8c-2.1,5.6-4.1,12.4-5.6,20.3-1.5,8-2,15.2-2.1,21.2"/>
        <path class="st2" d="M200.3,138.5c-1.2,6.2-2.2,13.2-2.8,20.8-.6,7.4-.8,14.3-.6,20.5"/>
        <path class="st2" d="M226.7,140.9c-.6,6.3-1,13.1-1.1,20.4,0,6.8.1,13.2.5,19.2"/>
        <path class="st2" d="M250.6,141.8c.7,6.8,1.3,14.1,1.6,21.6.3,5.9.4,11.6.4,17.1"/>
        <path class="st2" d="M275.2,141.1c.8,5.5,1.4,11.4,1.9,17.5.6,7.6.9,14.9.9,21.7"/>
        <path class="st2" d="M297.6,139.5c1.3,5.5,2.6,11.5,3.5,18,1.1,7.9,1.7,15.3,1.9,21.9"/>
        <path class="st2" d="M320.8,137.3c2,5,4,11,5.6,17.9,1.8,8.3,2.5,15.7,2.7,21.8"/>
      </g>
    </g>
    <path class="st3" d="M212.8,93.2c1,1.6,2,3.2,3,4.8"/>
    <path class="st3" d="M197.7,104.5c-.3,1.9-.7,3.8-1,5.7"/>
    <path class="st3" d="M186.9,122.9c1.3,1.4,2.6,2.7,3.8,4.1"/>
    <path class="st3" d="M214.2,123.2l1.9,4.1"/>
    <path class="st3" d="M233.1,80.5c0,1.6.2,3.2.2,4.8"/>
    <path class="st3" d="M236.2,104.7c-.4,1.5-.8,3-1.2,4.6"/>
    <path class="st3" d="M248,123.6c.6,1.8,1.1,3.5,1.6,5.3"/>
    <path class="st3" d="M256.3,95.6c.8,1.1,1.6,2.2,2.4,3.3"/>
    <path class="st3" d="M275.7,84.8c0,1.8-.2,3.7-.2,5.5"/>
    <path class="st3" d="M269.5,116.2c.5,2.2.8,4.4,1,6.7"/>
    <path class="st3" d="M291.8,101.1c1.2.7,2.2,1.6,3.1,2.6"/>
    <path class="st3" d="M291.5,128.2c1.8-1.3,3.5-2.6,5.3-3.8"/>
    <path class="st3" d="M310.7,116.5c.9,1.6,1.8,3.2,2.6,4.8"/>
  </g>
</svg>