<?xml version="1.0" encoding="UTF-8"?><svg id="Layer_2" xmlns="http://www.w3.org/2000/svg" width="500" height="500" viewBox="0 0 500 500"><g id="Layer_1-2"><rect id="Layer_1-3" width="500" height="500" fill="none"/><g id="beanie-flaps-color"><path d="M361.99,227.87c4.29-2.07,7.58-6.11,8.73-10.73,1.15-4.62.15-9.73-2.67-13.57,6.56-1.66,10.88-9.37,8.86-15.84-1-3.21-3.25-5.89-5.73-8.16-6.36-5.86-14.59-9.67-23.17-10.73-11.49-1.43-23.46.76-34.88,2.67-.57.1-1.19.22-1.58.65-.36.41-.43.99-.48,1.53-1.06,12.95,2.61,26.12,9.63,37.05,4.18,6.5,9.62,12.33,16.39,16.06,6.77,3.73,17.92,4.43,24.88,1.07Z" fill="#ee692b"/><path d="M138.01,227.87c-4.29-2.07-7.58-6.11-8.73-10.73-1.15-4.62-.15-9.73,2.67-13.57-6.56-1.66-10.88-9.37-8.86-15.84,1-3.21,3.25-5.89,5.73-8.16,6.36-5.86,14.59-9.67,23.17-10.73,11.49-1.43,23.46.76,34.88,2.67.57.1,1.19.22,1.58.65.36.41.43.99.48,1.53,1.06,12.95-2.61,26.12-9.63,37.05-4.18,6.5-9.62,12.33-16.39,16.06-6.77,3.73-17.92,4.43-24.88,1.07Z" fill="#ee692b"/><path d="M168.23,164.99c-6.66,17.78-11.28,36.51-4.57,54.27,20.73,3.73,28.15-28.96,26.68-47.07" fill="#ee692b"/><path d="M331.77,164.99c6.66,17.78,11.28,36.51,4.57,54.27-20.73,3.73-28.15-28.96-26.68-47.07" fill="#ee692b"/><path d="M234.49,177.31c1.89,5.24,4.8,10.12,8.51,14.28,2.42,2.71,5.68,5.29,9.29,4.85.86-.11,1.76-.43,2.22-1.17.29-.48.36-1.06.4-1.61.33-4.49-.48-9.05-2.34-13.15,1.96,3.93,4.75,8.14,9.09,8.79,3.44.51,6.88-1.54,8.92-4.35,2.05-2.81,2.95-6.28,3.66-9.69" fill="#ee692b"/></g><g id="beanie-top-color"><path d="M167.7,138.97s14.8-68.8,82.62-68.8,80.5,68.8,80.5,68.8l-78.95,18.65-84.17-18.65Z" fill="#7521c1"/></g><g id="beanie-brim-color"><path d="M151.99,168.83c5.69,12.64,63.23,11.68,100.58,11.68s84.91-1.28,93.15-8.57c8.24-7.29,0-32.66-8.88-34.88-8.88-2.22-41.85,4.76-84.65,4.76s-79.9-8.24-88.77-6.97c-8.88,1.27-15.26,25.49-11.43,33.99Z" fill="#518910"/><path d="M258.7,70.18c0,3.97-3.22,7.18-7.18,7.18s-7.18-3.22-7.18-7.18,3.22-7.18,7.18-7.18,7.18,3.22,7.18,7.18Z" fill="#4f8816"/></g><path d="M168.75,177h-.02c-.78,0-1.41-.4-1.4-.88.26-13.62,4.59-26.94,12.89-39.58.29-.44,1.12-.66,1.85-.48.73.18,1.08.68.79,1.13-8.17,12.44-12.44,25.55-12.69,38.95,0,.48-.64.86-1.42.86Z" fill="#262626"/><path d="M197.19,180c-.77,0-1.4-.43-1.42-.97-.57-13.5,1.19-27.04,5.22-40.25.16-.54.92-.88,1.69-.77.77.11,1.26.64,1.09,1.18-3.98,13.05-5.72,26.43-5.15,39.77.02.55-.59,1.01-1.38,1.02-.01,0-.03,0-.04,0Z" fill="#262626"/><path d="M225.81,180c-.71,0-1.32-.31-1.41-.74-2.63-12.87-1.85-25.85,2.31-38.58.15-.46.89-.76,1.67-.67.77.09,1.27.53,1.12.99-4.11,12.55-4.88,25.36-2.28,38.05.09.46-.46.88-1.24.94-.06,0-.12,0-.17,0Z" fill="#262626"/><path d="M252.33,181c-.76,0-1.39-.39-1.42-.89l-2.07-37.15c-.03-.51.58-.94,1.37-.96.79-.01,1.44.38,1.47.89l2.07,37.15c.03.51-.58.94-1.37.96-.02,0-.04,0-.05,0Z" fill="#262626"/><path d="M277.98,180h0c-.79,0-1.42-.44-1.42-.97.04-12.32-1.43-24.74-4.37-36.9-.13-.53.4-1.03,1.17-1.12.77-.09,1.51.27,1.63.8,2.96,12.26,4.45,24.79,4.41,37.22,0,.53-.64.97-1.42.97Z" fill="#262626"/><path d="M303.05,179c-.74,0-1.37-.49-1.42-1.13-.95-12.53-2.94-25.12-5.9-37.42-.16-.65.34-1.29,1.11-1.43.76-.13,1.52.29,1.68.94,2.99,12.41,4.99,25.11,5.95,37.75.05.67-.54,1.24-1.33,1.28-.03,0-.06,0-.09,0Z" fill="#262626"/><path d="M329.15,177c-.76,0-1.39-.47-1.42-1.06-.58-12.8-3.68-25.4-9.2-37.47-.26-.57.13-1.2.87-1.4.74-.2,1.55.1,1.81.67,5.62,12.28,8.77,25.11,9.36,38.13.03.61-.59,1.12-1.37,1.14-.02,0-.03,0-.05,0Z" fill="#262626"/><path d="M212.81,93.18c1.01,1.62,2.01,3.23,3.02,4.85" fill="none" stroke="#f7d4e2" stroke-linecap="round" stroke-miterlimit="10" stroke-width="2.84"/><path d="M197.7,104.5c-.34,1.91-.69,3.82-1.03,5.74" fill="none" stroke="#f7d4e2" stroke-linecap="round" stroke-miterlimit="10" stroke-width="2.84"/><path d="M186.86,122.93c1.28,1.36,2.56,2.72,3.83,4.07" fill="none" stroke="#f7d4e2" stroke-linecap="round" stroke-miterlimit="10" stroke-width="2.84"/><path d="M214.17,123.17l1.92,4.07" fill="none" stroke="#f7d4e2" stroke-linecap="round" stroke-miterlimit="10" stroke-width="2.84"/><path d="M233.09,80.53c.08,1.6.16,3.19.24,4.79" fill="none" stroke="#f7d4e2" stroke-linecap="round" stroke-miterlimit="10" stroke-width="2.84"/><path d="M236.2,104.72c-.4,1.52-.8,3.03-1.2,4.55" fill="none" stroke="#f7d4e2" stroke-linecap="round" stroke-miterlimit="10" stroke-width="2.84"/><path d="M247.99,123.63c.55,1.76,1.09,3.52,1.64,5.28" fill="none" stroke="#f7d4e2" stroke-linecap="round" stroke-miterlimit="10" stroke-width="2.84"/><path d="M256.33,95.62c.8,1.12,1.6,2.24,2.4,3.35" fill="none" stroke="#f7d4e2" stroke-linecap="round" stroke-miterlimit="10" stroke-width="2.84"/><path d="M275.73,84.84c-.08,1.84-.16,3.67-.24,5.51" fill="none" stroke="#f7d4e2" stroke-linecap="round" stroke-miterlimit="10" stroke-width="2.84"/><path d="M269.5,116.22c.52,2.2.84,4.45.96,6.71" fill="none" stroke="#f7d4e2" stroke-linecap="round" stroke-miterlimit="10" stroke-width="2.84"/><path d="M291.78,101.13c1.16.72,2.22,1.61,3.11,2.64" fill="none" stroke="#f7d4e2" stroke-linecap="round" stroke-miterlimit="10" stroke-width="2.84"/><path d="M291.54,128.2c1.76-1.28,3.51-2.56,5.27-3.83" fill="none" stroke="#f7d4e2" stroke-linecap="round" stroke-miterlimit="10" stroke-width="2.84"/><path d="M310.71,116.46c.88,1.6,1.76,3.19,2.64,4.79" fill="none" stroke="#f7d4e2" stroke-linecap="round" stroke-miterlimit="10" stroke-width="2.84"/></g></svg>