<?xml version="1.0" encoding="UTF-8"?><svg id="Layer_2" xmlns="http://www.w3.org/2000/svg" width="500" height="500" viewBox="0 0 500 500"><g id="Layer_1-2"><rect id="Layer_1-3" width="500" height="500" fill="none"/><g id="hair-color"><path d="M390,132.61c-6.13-6.46-14.97-10.33-23.87-10.19,6.91-10.59,5.45-25.88-3.33-34.98-8.78-9.1-24.45-11.96-35.27-5.43-1.38-9.36-7.91-17.59-16.34-21.88-8.43-4.29-18.51-4.81-27.64-2.32-9.12,2.49-17.04,7.74-23.72,14.44-3.16-8.5-13.7-14.8-22.75-15.15-19.86-.78-27.79,16.64-27.79,16.64,0,0-14.8-11.45-37.41-4.16-14.13,4.56-22.85,19.61-23.28,34.45-14.24,2.47-26.46,14.03-29.73,28.11-3.27,14.07,4.54,29.33,16.23,37.82-8.86,7.54-12.52,19.54-9.33,30.56,3,10.34,11.57,18.24,22.24,20.49.64-.53,1.65-1.29,3-2,4.35-2.28,8.59-2.12,11-2,1.45.07,3.54.3,6,1,.7.06,14.4,1,22.58-10.27,7.88-10.86,3.37-23.08,3.04-23.92,0,0,9.19,6.95,21.65,3.83,12.46-3.12,16.1-14.54,16.1-14.54,0,0,8.31,12.81,23.02,11.25,14.71-1.56,20.08-14.88,20.08-14.88,0,0,5.03,12.63,18.61,13.85,12.05,1.07,17.62-4.38,18.73-5.62.05.05.09.1.13.15-.69,3.39-3.01,17.69,6.32,29.7,4.68,6.02,10.39,9.03,13.76,10.46,1.53-.57,7.36-2.54,14,0,5.09,1.94,7.93,5.5,9,7,3.47-.4,17.8-2.45,26.85-14.58,2.43-3.26,7.55-11.07,6.42-21.2-.51-4.56-2.91-9.92-6.82-12.3,8.35-3.09,14.63-10.96,16.18-19.73,1.55-8.77-1.51-18.13-7.63-24.59Z" fill="#262626"/></g><g id="hair-details"><path d="M166.21,117.11c-5.06,3.79-7.47,10.8-5.79,16.9,1.68,6.1,7.33,10.89,13.62,11.56-2.67,6.81,1.31,15.44,8.22,17.83" fill="none" stroke="#463f56" stroke-linecap="round" stroke-miterlimit="10" stroke-width="2.84"/><path d="M201.62,102.4c1.74-2.86,4.61-4.85,7.6-6.37,3.53-1.8,7.45-3.08,11.4-2.8,3.95.28,7.93,2.34,9.74,5.86,5.56-5.26,14.98-5.77,21.09-1.15" fill="none" stroke="#463f56" stroke-linecap="round" stroke-miterlimit="10" stroke-width="2.84"/><path d="M297.15,92.51c6.15-2.68,13.72-1.8,19.09,2.23s8.34,11.04,7.49,17.7c3.92-.44,8,.98,10.8,3.76,2.8,2.77,4.26,6.85,3.86,10.77" fill="none" stroke="#463f56" stroke-linecap="round" stroke-miterlimit="10" stroke-width="2.84"/><path d="M352.04,150.1c4.94,3.04,8.01,8.89,7.7,14.68-.31,5.79-3.99,11.28-9.23,13.77,5.07,5.41,5.24,14.7.37,20.3" fill="none" stroke="#463f56" stroke-linecap="round" stroke-miterlimit="10" stroke-width="2.84"/><path d="M152.95,166.08c-2.42,3.18-3.35,7.45-2.48,11.35.87,3.9,3.52,7.37,7.05,9.22-1.63,2.61-1.76,6.55-.81,9.47.95,2.93,3.24,5.39,6.08,6.55" fill="none" stroke="#463f56" stroke-linecap="round" stroke-miterlimit="10" stroke-width="2.84"/></g></g></svg>