<?xml version="1.0" encoding="UTF-8"?><svg id="Layer_2" xmlns="http://www.w3.org/2000/svg" width="500" height="500" viewBox="0 0 500 500"><g id="Layer_1-2"><rect id="Layer_1-3" width="500" height="500" fill="none"/><g id="hair-color"><path id="hair-color-2" d="M358.9,158.32s20.23-8.96,17.91-28.19c-2.32-19.24-38.3-17.58-38.3-17.58,0,0,25.95-30.24-6.82-48.07-39.05-21.24-98.81,22.86-98.81,22.86,0,0-3.08-12.23-14.08-11.78-38.06,1.55-41.67,51.59-41.67,51.59,0,0-7.22-5.11-15.56-2.99-10.8,2.76-15.5,15.18-17.61,20.9-11.16,30.28,19.17,68.06,23.94,73.83l.04.12s.02,0,.04-.02c0,0,.01.02.02.02,0-.01,0-.02,0-.03.92-.49,12.97-7.03,17.75-18.19,4.98-11.61,4.36-24.88,4.36-24.88,0,0,21.51,8.29,45.73,0,24.21-8.29,37.48-20.57,37.48-20.57,0,0-1.99,12.94,9.29,16.92,11.28,3.98,29.85-1.33,29.85-1.33,0,0-2.32,14.93,2.99,28.19,5.31,13.27,16.24,19.88,16.24,19.88l.24-.52c.02.17.05.35.07.52,4.7-1.13,12.81-3.76,20.64-10.27,5.04-4.19,13.18-12.88,15.88-26.2,4.31-21.23-9.62-24.21-9.62-24.21Z" fill="#262626"/></g><g id="hair-details"><path d="M203.6,119.3c4.87-6.45,11.51-11.94,19.39-13.75,7.88-1.81,17.04.74,21.59,7.43,9.73-15.03,27.47-24.52,45.37-24.28" fill="none" stroke="#463f56" stroke-linecap="round" stroke-miterlimit="10" stroke-width="2.9"/><path d="M277.81,122.92c6.03-3.23,12.63-5.37,19.4-6.31,4.49-.62,9.48-.58,13.01,2.27,3.93,3.16,4.68,9.56,1.6,13.55,3.75-.87,7.61-1.74,11.42-1.22s7.65,2.74,8.97,6.36" fill="none" stroke="#463f56" stroke-linecap="round" stroke-miterlimit="10" stroke-width="2.9"/><path d="M203.92,144.31c4.4-3.43,9.39-6.08,14.69-7.81,4.92-1.61,10.43-2.38,15.2-.34,4.76,2.04,8.25,7.65,6.47,12.51,6.13-4.05,13.68-5.9,20.99-5.14" fill="none" stroke="#463f56" stroke-linecap="round" stroke-miterlimit="10" stroke-width="2.9"/><path d="M334.45,160.26c4.1.71,8.11,3.97,8.12,8.14.01,2.92-1.84,5.47-3.61,7.79,3.08-.25,5.76,2.65,6.12,5.72.37,3.06-1.06,6.09-2.95,8.53" fill="none" stroke="#463f56" stroke-linecap="round" stroke-miterlimit="10" stroke-width="2.9"/><path d="M176.49,150.05c-2.98.62-5.82,1.91-8.26,3.73-1.83,1.36-3.52,3.22-3.74,5.49-.32,3.35,2.58,6.05,5.29,8.04-3.36.91-6.06,3.88-6.65,7.3s.96,7.13,3.82,9.11" fill="none" stroke="#463f56" stroke-linecap="round" stroke-miterlimit="10" stroke-width="2.9"/></g></g></svg>