<?xml version="1.0" encoding="UTF-8"?><svg id="Layer_2" xmlns="http://www.w3.org/2000/svg" width="500" height="500" viewBox="0 0 500 500"><g id="Layer_1-2"><rect id="Layer_1-3" width="500" height="500" fill="none"/><g id="hair-color"><path id="hair-color-2" d="M432.53,285.85c-.56-14.65-9.58-27.46-19.94-37.08-10.36-9.62-22.4-17.1-32.26-27.31-8.83-9.14-15.76-20.38-20.13-32.66-7.02-19.73-7.56-42.05-17.5-60.3-8.57-15.73-23.4-26.72-39.29-33.31-15.88-6.6-30.27-9.19-52.07-9.19s-36.19,2.59-52.07,9.19c-15.88,6.6-30.71,17.58-39.29,33.31-9.94,18.25-10.47,40.57-17.5,60.3-4.37,12.28-11.29,23.51-20.13,32.66-9.86,10.21-21.89,17.69-32.26,27.31-10.36,9.62-19.38,22.43-19.94,37.08-.26,6.88,1.38,13.73,3.95,20.04,5.14,12.6,14.13,23.38,25.26,30.28,3.55,2.2,7.41,4.11,10.08,7.44,6.34,7.92,3.49,19.82,3.95,30.22.39,8.69,3.54,17.17,8.66,23.93,4.46-6.84,9.97-12.9,16.28-17.95,20.05-16.04,41.68-16.81,47.93-16.81,11.93.24,23.85.48,35.78.73.26,1.41.63,2.78,1.09,4.1.06-11.98.12-23.97.18-35.95-28.77-8.62-42.8-31.85-49.59-58.23-4.34.51-10.39-.11-13.52-1.18-13.25-4.53-20.79-17.78-20.79-30.57s7.58-24.73,19.09-24.73c3.6,0,6.57.27,9.04.77-.15-10.68.06-20.49.06-28.54,0-45.31,36.73-82.04,82.04-82.04s82.04,36.73,82.04,82.04c0,8.05.21,17.86.06,28.54,2.47-.5,5.44-.77,9.04-.77,11.51,0,19.09,11.94,19.09,24.73s-7.54,26.04-20.79,30.57c-3.13,1.07-9.18,1.7-13.52,1.18-6.58,25.57-19.96,48.19-47,57.41-.15,12.03-.3,24.06-.46,36.09.35-1.11.65-2.25.86-3.42,11.35-.24,22.7-.48,34.04-.73,27.49,0,52.14,14.59,65.68,37.12,6.25-7.08,10.14-16.55,10.57-26.29.47-10.4-2.39-22.3,3.95-30.22,2.67-3.33,6.53-5.24,10.08-7.44,11.13-6.91,20.12-17.68,25.26-30.28,2.58-6.31,4.22-13.16,3.95-20.04Z" fill="#262626"/><path d="M348.07,163.77c-1.74-6.68-4.95-12.99-8.99-18.77-9.36-13.38-23.16-23.92-38.61-31.14-15.45-7.23-32.52-17.1-49.75-18.94-.37-.04-.76-.07-1.13-.03-.37-.04-.76-.01-1.13.03-17.23,1.85-34.3,11.72-49.75,18.94-15.45,7.23-29.25,17.76-38.61,31.14-4.04,5.78-7.26,12.09-8.99,18.77-2.91,11.21-1.55,23.11,2.31,34.08,2.14,6.09,5.71,12.38,10.23,17.48,1.52,1.71,4.16,1.9,5.95.47,11.88-9.51,18.13-23.96,17.24-38.53,16.57-1.79,32.42-8.82,44.23-19.63,8.51-7.78,14.88-17.48,18.53-27.98,3.65,10.49,10.02,20.2,18.53,27.98,11.82,10.8,27.66,17.83,44.23,19.63-.89,14.56,5.36,29.02,17.24,38.53,1.79,1.43,4.43,1.24,5.95-.47,4.52-5.1,8.08-11.39,10.23-17.48,3.86-10.97,5.22-22.87,2.31-34.08Z" fill="#262626"/></g><g id="hair-details"><path d="M153.4,153.42c18.98,5.83,40.19,4,57.9-4.98,17.7-8.98,31.7-25.03,38.2-43.79" fill="none" stroke="#463f56" stroke-linecap="round" stroke-miterlimit="10" stroke-width="2.92"/><path d="M170.49,127.18c5.08,2.02,10.75,2.08,16.15,1.22,12.96-2.07,25-9.45,32.71-20.07" fill="none" stroke="#463f56" stroke-linecap="round" stroke-miterlimit="10" stroke-width="2.92"/><path d="M113.34,258.96c-10.04,6.84-16.96,18.09-18.54,30.15-.59,4.52-.42,9.31,1.71,13.34,4.48,8.46,15.8,10.83,21.72,18.34,2.72,3.45,4.14,7.91,3.9,12.3-.29,5.36-2.9,10.32-3.83,15.6-.94,5.28.61,11.84,5.65,13.68" fill="none" stroke="#463f56" stroke-linecap="round" stroke-miterlimit="10" stroke-width="2.92"/><path d="M144.98,280.01c-2.18,3.75-3.59,7.96-4.11,12.27-.47,3.87-.15,8.05,2.05,11.27,2.83,4.13,8.02,5.78,12.75,7.4,4.74,1.62,9.86,3.9,11.82,8.51,2.55,5.98-1.44,12.9-.23,19.29.73,3.9,3.52,7.35,7.18,8.89" fill="none" stroke="#463f56" stroke-linecap="round" stroke-miterlimit="10" stroke-width="2.92"/><path d="M349.22,153.42c-18.98,5.83-40.19,4-57.9-4.98-17.7-8.98-35.33-25.03-41.83-43.79" fill="none" stroke="#463f56" stroke-linecap="round" stroke-miterlimit="10" stroke-width="2.92"/><path d="M334.08,127.18c-5.08,2.02-10.75,2.08-16.15,1.22-12.96-2.07-25-9.45-32.71-20.07" fill="none" stroke="#463f56" stroke-linecap="round" stroke-miterlimit="10" stroke-width="2.92"/><path d="M391.23,258.96c10.04,6.84,16.96,18.09,18.54,30.15.59,4.52.42,9.31-1.71,13.34-4.48,8.46-15.8,10.83-21.72,18.34-2.72,3.45-4.14,7.91-3.9,12.3.29,5.36,2.9,10.32,3.83,15.6.94,5.28-.61,11.84-5.65,13.68" fill="none" stroke="#463f56" stroke-linecap="round" stroke-miterlimit="10" stroke-width="2.92"/><path d="M359.59,280.01c2.18,3.75,3.59,7.96,4.11,12.27.47,3.87.15,8.05-2.05,11.27-2.83,4.13-8.02,5.78-12.75,7.4-4.74,1.62-9.86,3.9-11.82,8.51-2.55,5.98,1.44,12.9.23,19.29-.73,3.9-3.52,7.35-7.18,8.89" fill="none" stroke="#463f56" stroke-linecap="round" stroke-miterlimit="10" stroke-width="2.92"/></g></g></svg>