<?xml version="1.0" encoding="UTF-8"?><svg id="Layer_2" xmlns="http://www.w3.org/2000/svg" width="500" height="500" viewBox="0 0 500 500"><g id="Layer_1-2"><rect id="Layer_1-3" width="500" height="500" fill="none"/><path d="M188.43,367.3h34.73c.06-11.81.12-23.61.17-35.42-28.77-8.62-42.8-31.85-49.59-58.23-4.34.51-10.39-.11-13.52-1.18-4.95-1.69-9.1-4.6-12.36-8.24l-1.84,116.44c12.1-8.47,26.78-13.37,42.4-13.37Z" fill="#262626"/><path d="M310.89,367.3c19.31,0,37.17,7.47,50.52,19.93l-5.3-129.83c-3.48,6.78-9.26,12.42-17.01,15.07-3.13,1.07-9.18,1.7-13.52,1.18-6.58,25.57-19.96,48.19-47,57.41-.15,12.08-.3,24.16-.46,36.24h32.77Z" fill="#262626"/><path d="M287.78,134.35c2.38,14.49,19.8,60.03,44,81.64,0,.65-.01,1.3-.02,1.96,2.47-.5,5.44-.77,9.04-.77,5.82,0,10.64,3.06,13.98,7.74l-1.53-37.4c0-56.61-45.89-102.51-102.51-102.51s-102.51,45.89-102.51,102.51c0,3.91.23,7.98.65,12.16l-.33,21.01c2.81-2.2,6.17-3.5,9.96-3.5s6.57.27,9.04.77c-.01-.84-.02-1.66-.03-2.48,7.89-1.98,13.98-8.76,16.99-16.35,3.08-7.77,3.42-16.32,3.31-24.68,20.97,1.9,41.51-2.21,60.99-10.19,15.39-6.3,29.95-15.92,38.96-29.89Z" fill="#262626"/><g id="hair-details"><path d="M169.94,153.98c13.33,5.68,28.4,5.98,42.76,3.99,16.81-2.33,33.38-7.79,47.39-17.36,14.02-9.58,25.36-23.46,30.39-39.67" fill="none" stroke="#463f56" stroke-linecap="round" stroke-miterlimit="10" stroke-width="2.9"/><path d="M186.7,123.13c14.05,5.35,29.79,6.15,44.32,2.27,14.53-3.88,27.77-12.43,37.28-24.07" fill="none" stroke="#463f56" stroke-linecap="round" stroke-miterlimit="10" stroke-width="2.9"/><path d="M300.59,110.92c-2.94,29.66,11.04,60.42,35.32,77.7" fill="none" stroke="#463f56" stroke-linecap="round" stroke-miterlimit="10" stroke-width="2.9"/><line x1="164.37" y1="289.99" x2="164.37" y2="344.67" fill="none" stroke="#463f56" stroke-linecap="round" stroke-miterlimit="10" stroke-width="2.9"/><line x1="186.02" y1="333.3" x2="186.02" y2="352.47" fill="none" stroke="#463f56" stroke-linecap="round" stroke-miterlimit="10" stroke-width="2.9"/><line x1="335.74" y1="289.63" x2="335.74" y2="345.83" fill="none" stroke="#463f56" stroke-linecap="round" stroke-miterlimit="10" stroke-width="2.9"/><line x1="309.68" y1="331.83" x2="309.68" y2="354.63" fill="none" stroke="#463f56" stroke-linecap="round" stroke-miterlimit="10" stroke-width="2.9"/></g></g></svg>