<?xml version="1.0" encoding="UTF-8"?><svg id="Layer_2" xmlns="http://www.w3.org/2000/svg" width="500" height="500" viewBox="0 0 500 500"><g id="Layer_1-2"><rect id="Layer_1-3" width="500" height="500" fill="none"/><g id="lens-color"><circle cx="210.82" cy="223.56" r="27.56" fill="#140e13" opacity=".5"/><circle cx="289.18" cy="223.56" r="27.56" fill="#140e13" opacity=".5"/></g><g id="frame-color"><path d="M210.82,253.11c-16.3,0-29.56-13.26-29.56-29.56s13.26-29.56,29.56-29.56,29.56,13.26,29.56,29.56-13.26,29.56-29.56,29.56ZM210.82,198c-14.09,0-25.56,11.46-25.56,25.56s11.46,25.56,25.56,25.56,25.56-11.46,25.56-25.56-11.46-25.56-25.56-25.56Z" fill="#ccbec4"/><path d="M289.18,253.11c-16.3,0-29.56-13.26-29.56-29.56s13.26-29.56,29.56-29.56,29.56,13.26,29.56,29.56-13.26,29.56-29.56,29.56ZM289.18,198c-14.09,0-25.56,11.46-25.56,25.56s11.46,25.56,25.56,25.56,25.56-11.46,25.56-25.56-11.46-25.56-25.56-25.56Z" fill="#ccbec4"/><path d="M238.58,224.03c-.8,0-1.55-.48-1.86-1.27-.4-1.03.11-2.19,1.13-2.59,7.46-2.92,15.8-3.27,23.49-.99,1.06.31,1.66,1.43,1.35,2.49-.31,1.06-1.43,1.66-2.49,1.35-6.83-2.02-14.25-1.71-20.89.89-.24.09-.49.14-.73.14Z" fill="#ccbec4"/></g></g></svg>