<?xml version="1.0" encoding="UTF-8"?><svg id="Layer_2" xmlns="http://www.w3.org/2000/svg" width="1920" height="1080" xmlns:xlink="http://www.w3.org/1999/xlink" viewBox="0 0 1920 1080"><defs><clipPath id="clippath"><rect width="1920" height="1080" fill="none"/></clipPath></defs><g id="Layer_1-2"><g clip-path="url(#clippath)"><path d="M1306.33,571.7c8.21-17.6,13.91-37.37,15.08-60.54-30.3,6.37-49.34,24.76-73.55,59.73-1.44,2.09-2.83,4.17-4.17,6.26,11.27-48.36,5.1-76.01-1.68-104.2-32.33,26.47-43.59,55.41-49.91,88.06-7-24.56-19.87-49.25-47.58-71.37-6.86,30.91-8.62,52.51-4.96,75.05-13.97-14.31-29.62-25.92-47.79-31.89,7.26,19.44,14,38.46,22.14,56.38-11.86-7.94-21.98-13.96-28.72-21.58-3.95,36.2,10.1,64.31,33.37,89.12,20.29,21.63,61.75,28.86,72.05,30.36,1.11.77,1.75,1.2,1.79,1.23,1.4.89,3.12,1.37,3.85,1.55-.87,24.58-1.87,51.79-1.88,52.19,0,.17.07.33.2.44.09.07.93.7,2.66.7.98,0,2.07-.21,3.23-.62.23-.08.37-.3.36-.54-.74-13.11-1.06-38.52-.75-59.16.84-.29,4.06-1.32,11.73-2.94.57-.12,1.27-.32,2.08-.6,34.23,6.5,57.65-9.58,74.18-24.83,16.91-15.59,29.42-36.23,40.62-98.73-5.14,4.3-13.09,9.72-22.33,15.9ZM1192.74,661.8c.84,3.62,3.77,8.87,3.89,9.09.07.12.15.21.25.29-.03.91-.06,1.83-.1,2.78-.63-.5-1.45-1.14-2.34-1.84-.14-.12-.45-.46-.87-.96-.27-2.17-.84-6.2-1.84-11.41.17.15.34.3.5.44.26.76.44,1.33.5,1.6ZM1194.84,661.31c-.05-.22-.16-.58-.31-1.04.68-1.26,1.77-3.51,2.9-6.76-.06,2.25-.12,4.5-.17,6.79h0c-.06,1.98-.14,4.22-.22,6.66-.84-1.74-1.79-3.94-2.19-5.65ZM1200.8,660.36h0s.15-2.57.33-6.6c2.12-1.54,7.1-5.49,13.09-12.62-2.74,8.95-4.24,15.57-4.86,18.58-.42.41-.8.77-1.09,1.04-3.54,3.25-6.32,5.1-7.81,5.98.1-2.33.21-4.48.33-6.38ZM1193.54,686.5s-.58-.39-1.54-1.06c-1.45-2.93-4.48-8.95-8.62-16.48,2.97,1.3,5.75,2.35,8.31,3.27.72.87,1.22,1.42,1.44,1.59,1.86,1.45,3.47,2.73,3.47,2.73.03.03.07.04.1.06-.12,3.52-.25,7.25-.39,11.05-.72-.2-1.86-.58-2.77-1.16ZM1211.87,677.71c-.18.05-.38.1-.54.14-6.37,1.34-9.72,2.29-11.25,2.76.07-4.05.17-7.88.29-11.36.79-.4,4.37-2.32,9.36-6.91.31-.28.73-.69,1.26-1.21,1.87-.42,4.39-1.06,7.37-1.97-3.65,8.82-5.74,15.87-6.49,18.55Z" fill="#9fe8a1"/><path d="M602.88,621.88c-49.82,18.72-87.88,43.14-115.3,67.48h0s-8.35-1.63-17.57,2.22c16.2-24.97,33.68-46.27,46.17-60.43,31.3,11.98,76.19-28.94,96.8-57.98,22.59-31.83,45.18-83.01,69.65-113.6,24.47-30.59,31.53-48.47,35.3-78.59,3.76-30.12,6.59-26.36-19.3-25.41-25.89.94-38.12,1.41-58.83,17.88-20.71,16.47-13.65,39.53-32,54.12-18.35,14.59-52.24,2.35-71.28,17.45,0,0-1.23,1.21-3.33,3.77,13.68-29.29,30.58-56.25,28.88-97.45-2.12-51.39-20.02-123.25-35.42-122.61-15.4.64-15.4,19.33-28.11,36.1-12.71,16.77-18.03,36.62-15.21,57.32,2.82,20.71-18.43,29.34-30.63,37.96,0,0,0,0,0,0-1.48-4.02-3.31-7.84-5.6-11.38-6.74-10.4-17.15-17.75-28.37-21.41-6.95-21.34-17.7-31.27-29.52-44.71-13.65-15.53-24-34.83-49.89-53.9-25.88-19.07-25.41-19.52-37.65-4.46-27.77,37.65-23.06,58.83-10.35,96.95,12.71,38.12-9.88,42.36-8.94,81.42.37,15.38.75,28.86,2.57,42.4h0c-19.04-15.1-52.92-2.87-71.28-17.45-18.35-14.59-11.29-37.65-32-54.12-20.71-16.47-32.94-16.94-58.83-17.88-25.88-.94-23.06-4.71-19.3,25.41,3.77,30.12,10.82,48,35.3,78.59,16.6,20.76,32.34,50.99,47.8,78.23-47.11-15.09-102.47-21.3-131.58,18.59,19.3-12.1,39.86-18.02,46.05,0,6.19,18.02,9.95,21.94,27.84,31.98,17.88,10.04,22.84,17.1,25.54,29.34,2.7,12.24,23.88,24.94,42.23,42.83,18.35,17.88,48.95,47.77,74.36,35.89,20.8-9.72,35.81-11.3,52.23-9.25,13.67,13.05,28.65,10.36,35.4,3.71,0,0,0,.02,0,.02,48.41,38.05,48.23,96.76,48.23,96.76h5.57c3.07.29,5.32.41,6.98.43h0s.02,0,.06,0c4.02.06,4.49-.44,4.49-.44,0,0,0-.01,0-.01.4-.02.8-.08,1.21-.18,0,.06-.02.13-.03.19,1.4-.16,2.6-.44,3.59-.74,0,0,0,0,0,0h0c2.03-.63,3.14-1.35,3.14-1.35,0,0,11.02-44.61,22.85-57.99,0-.01,0-.02,0-.04,18.39,26.25,68.39,28.22,100.84,13.01,33.11-15.53,38.76-40.04,83-53.67,44.24-13.63,110.6-2.33,113.42-94.58,0,0-73.89,1.29-149.19,29.59ZM432.2,747.29c.78-19.3,3.11-43.37,5.78-66.29,12.53-.49,26.62-3.68,36.89-14.35,11.32-11.75,18.7-33.27,19.4-56.96,3.21,6.31,7.57,11.89,13.29,16.48.74.6,1.5,1.14,2.26,1.65-42.68,47.31-65.58,90.04-77.63,119.46ZM410.66,679.06c.61,10.24,1.08,22.62,1.42,35.47-5.36-12.09-11.57-23.24-17.97-33.29,9.38-2.16,13.42-2.41,16.55-2.18ZM416.51,682.65c-.04-.95-.08-1.93-.12-2.92,4.13.53,9.64,1.18,15.8,1.31-3.75,31.66-6,57.94-7.16,73.13-1.43-6.82-3.23-13.47-5.34-19.9-1.32-17.81-2.58-36.86-3.18-51.63ZM360.82,688.3s-.01,0-.02-.01c.31-.5.6-1,.88-1.52,7,.47,14.61-.94,22.13-2.94,1.22-.32,2.37-.63,3.47-.91,10.16,16.58,18.11,32.99,22.28,47.74,1.18,4.18,2.19,8.31,3.06,12.32.07,5.92.11,11.67.13,17.09-16.94-50.06-51.92-71.77-51.92-71.77ZM451.43,723.39c.26-.51.53-1.01.79-1.51.03.1.05.2.08.3h0s-.32.43-.87,1.21Z" fill="#9fe8a1"/><path d="M808.85,628.42c-29.47,5.1-46.07,33.57-46.07,33.57-8.98,12.81-17.83,32.91-21.36,52.57.37-7.42.5-14.74.47-21.79,4.38-14.06,11.99-31.17,25.08-50.63,37.7-56.06,75.84-52.65,75.84-52.65,13.55,6.21,25.57,16.07,48.09,15.91-8.75-8.8-20.64-26.92-35.97-33.9-24.9-10.59-45.57-6.18-62.51.17-30.34,11.93-46.51,34.16-54.91,58.2h0s0,0,0,0c-.07.2-.14.4-.21.6,0,0,0,0,0,0,0,0-.03-100.52-41.72-177.17-9.43,90.67-7.94,150.56-7.94,150.56,0,0,1.9,16.17,6.2,37.92-7.12-14.25-15.27-27.94-25.45-41.22,0,0-33.38-48.75-116.02-44.92,26.24,41.35,79.4,73.44,122.31,109.59.36.38,25.74,26.85,42.4,53.9,0,0,0,0,0,.01-14.91-15.17-39.79-37.13-69.75-50.57-7.87-3.53-16.1-6.48-24.58-8.55-28.42-7.12-81.21.56-81.21.56,0,0,47.01,30.14,101.18,49.34,2.64.94,5.31,1.85,7.98,2.73,57.44,18.91,69.18,19.79,76.62,24.32.85-.19,1.69-.37,2.5-.55.81-.18,1.61-.36,2.36-.52.52-.11,1.01-.22,1.49-.33.1-.02.2-.04.3-.07,1.09-.24,2.09-.46,2.93-.65,1.83-.41,2.96-.66,2.96-.66,3.84-.85,7.16-1.59,7.16-1.59,0,0,6.21-25.27,24.64-39.02,18.39-13.72,37.61-25.5,37.7-25.55,10.2,3.06,20.86,6.73,32.15,10.06,29.59,8.74,56.33,9.52,69.67-6.59-32.4-5.7-68.57-48.95-102.34-43.08Z" fill="#82d681"/><path d="M1074.7,581.35c-12.62-6.28-26.55-3.2-33.5,1.17-6.95,4.37-13.71,11.72-13.71,11.72,2.92-6.04,7.22-15.05,8.88-19.14.8-1.96,1.23-3.53,1.41-4.99,0,0,0,0,0,0,3.96-10.52,4.5-21.71,1.82-35.75-2.68-14.03-11-27.8-13.61-39.46-.41,11.93-5.15,14.93-6.59,34.06-1.44,19.13-1.14,28.72,2.83,42.75,1.7,5.12,2.2,10.3,2.34,12.9-.94-2.15-2.49-4.35-5.01-6.37-7.4-6.19-7.05-1.37-18.62-9.43-5.28-3.67-6.95-6.89-16.43-7.78-4.5-.42-7.69-.72-10.21-1.1,1.47-5.97,2.09-12.5,1.47-21.04-.73-7.83-2.14-13.33-2.29-15.7-2.32,10.32-6,15.72-10.66,29.22-.82,2.37-1.6,4.8-2.34,7.28-2.44-4.25-2.24-7-2.24-7,0,0-.82,2.58,1.58,9.3-1.75,6.28-3.15,12.92-3.88,19.91-2.84-5.52-6.89-11.06-12.19-16.57,1.83,9.47.77,12.58,1.65,22.68-.99-.69-1.85-1.36-2.52-2.27,0,5.12,1.59,7.94,3.57,10.91.71,4.42,1.68,8.24,2.77,11.57-3.26-4.73-7.56-9.4-13.9-13.48-11.28-7.26-19.05-9.33-31.18-9.15-12.14.18-13.67-.71-19.06-1.61,6.8,2.37,10.87,4.58,16.77,12.34,5.9,7.76,13.61,13.03,27.44,13.57,13.82.54,16.5-1.27,22.51,6.89,2.86,3.91,5.07,10.86,5.08,10.91,1.01,6.96,1.59,14.87,7.42,21.31,6.16,6.81,13.52,6.32,17.08,10.16.57,6.03.21,8.52.17,11.92-.06,4.07,1.85,4.99,2.5,14.56.65,9.56-.87,11.81-.92,15.94-.05,4.13,1.62,5.32,2.19,14.45.57,9.14-1.93,13.48-1.62,17.52.31,4.04,2.25,8.48,2.84,18.97.59,10.49-1.04,16.01-1.03,19.09,0,3.08,1.12,5.1,1.25,13.28.14,8.18-1.27,19.27-1.27,19.27,0,0,10.74,1.39,19.78-1.64-4.12-17.78-.69-26.06-.93-29.92-.24-3.86-3.02-6.03-3.68-16.7-.66-10.67,1.16-17,1.28-21.07.12-4.07-1.89-3.64-2.34-14.94-.45-11.3,1.42-14.8,1.55-17.64.13-2.84-1.63-3.53-2.19-15.56-.56-12.03,1.71-14.08,1.73-16.85.01-2.77-2.54-10.18-2.64-18.12-.07-5.18.62-9.17,1.01-12.9v.02s3.5.09,7.93-3.96c0,0,0,0,0,0,4.75-.32,11.2-.67,13.66-6.62-2.84.78-5.16-1.82-8.68.54,0,0,0,0-.02.02.82-1.26,1.6-2.53,2.33-3.8.52.02,1.04.03,1.57.02,3.91-.02,9.38-.02,16.68-3.29,1.84,1.05,3.2,1.46,3.2,1.46,0,0-.76-.75-1.63-2.2,3.01-1.49,6.31-3.53,9.92-6.34-4.24.13-8.34,0-12.23-.28-.06-.43-.11-.87-.14-1.33-.47-6.62-1.14-10.52-2.64-11.72-1.37-1.11-2.24-.67-4.11-.06,2.68-3.06,11.84-13.15,17.37-14.82,6.53-1.96,12.33.3,22.63,8.86,10.3,8.55,17.97,10.54,24.64,9.47,6.66-1.07,8.14,1.55,8.14,1.55,0,0-10.35-18.73-22.97-25.01ZM986.43,579.86c11.54,7.47,13.65,5.37,25.13,6.51,9.87,1.05,12.62,3.73,12.62,3.73h0c-.66,2.07-2.41,7.42-4.06,11.29-.93,2.19-2.19,5.73-3.71,9.56.27-9.82-5.35-11.13-7.56-16.91-.38,7.61,1.5,13.21,3.41,17.57-5.2-1.07-9.16-2.11-11.36-2.55-5.65-1.13-8.5-2.1-11.04.68-2.2,2.34-5.41,6.22-7.71,9.07,1.72-5.07,2.67-11.97,1.85-20.23,2.33-2.96,4.38-6.41,5.84-10.5-2.47.98-4.8,2.08-6.99,3.24-2.16-9.88-6.49-14.82-12.26-20.37.73-1.78,1.41-3.52,2.01-5.27,2.96,4.68,6.31,9.31,13.83,14.18ZM980.53,652.03c-1.24-.46-2.65-.77-4.13-1.15,1.13-1.14,2.31-2.29,3.52-3.46.2,1.51.41,3.06.62,4.61ZM964.38,584.77c.01,1.05.02,2.15,0,3.33-.08,6.59.9,11.22,2.44,14.84-2.74,2.69-4.8,5.22-6.17,7.29.24-2.97.38-6.27.32-9.69-.04-2.12-.27-4.25-.68-6.39,1.16-2.95,2.59-6.14,4.09-9.38ZM964.16,641.3c-4.35-9.33-4.26-9.07-4.94-17.49-.05-.61-.08-1.23-.11-1.85.15-.75.45-2.41.78-4.7,2.07-2.49,5.71-3.21,11.36-7.21h0c.52.65,1.06,1.28,1.6,1.9,4.42,5.14,5.83,10.65,5.83,10.65l.18-.07c-.33.13-.64.25-.91.35-3.78-1.41-4.25-2.28-6.2-.68-1.95,1.6-1.68,3.39-.65,8,1.02,4.62-.41,6.67,1.28,11.33,1.45,4,2.61,5.54,2.64,8.97-3.85-1.11-7.99-3.04-10.86-9.2ZM1009.67,624.48c-4.67,6.56-10.74,7.74-10.74,7.74v.02c-.84-1.25-3.14-2-6.08-2.4.83-4.13-.58-7.84-4.06-11.08,0,0-4.31,1.63-7.77,2.95,0,0,0,0,0,0,6.08-8,10.1-7.86,15.34-4.08,5.59,4.15,9.64,6.03,13.33,6.84,0,0,0,0,0,0ZM1020.04,613.04c.81-1.98,1.57-3.96,2.29-5.91.43,1.93.89,4,2.29,6.56-1.58-.2-3.11-.42-4.58-.65Z" fill="#9fe8a1"/><path d="M1838.33,544.63s-89.9,88.58-104.58,174.24c-4.77.74-9.32,1.18-9.32,1.18,0,0,12.14-80.64,104.54-175.42,4.93-2.06,9.36,0,9.36,0Z" fill="#9fe8a1"/><path d="M1907.81,553.84c-49.82,18.72-87.88,43.14-115.31,67.48h0s-16.63-3.26-28.86,10.24c-8.22,9.06-7.66,17.81-6.41,22.58h0s-12.1,16.24-20.38,38.94c-.12-20.68,2.7-51.31,6.05-80.12,12.53-.49,26.62-3.68,36.89-14.35,11.32-11.75,18.7-33.27,19.4-56.96,3.21,6.31,7.57,11.89,13.29,16.48,31.06,24.94,82.83-21.18,105.42-53.01,22.59-31.83,45.18-83.01,69.65-113.6,24.47-30.59,31.53-48.47,35.3-78.59,3.76-30.12,6.59-26.36-19.3-25.41-25.89.94-38.12,1.41-58.83,17.88-20.71,16.47-13.65,39.53-32,54.12-18.35,14.59-52.24,2.35-71.28,17.45,0,0-1.23,1.21-3.33,3.77,13.68-29.3,30.58-56.25,28.88-97.45-2.12-51.39-20.02-123.25-35.42-122.61-15.4.64-15.4,19.33-28.11,36.1-12.71,16.77-18.03,36.61-15.21,57.32,2.82,20.71-18.43,29.34-30.63,37.96,0,0,0,0,0,0-1.48-4.02-3.31-7.84-5.6-11.38-6.74-10.4-17.15-17.75-28.37-21.41-6.95-21.34-17.7-31.27-29.52-44.71-13.65-15.53-24-34.83-49.89-53.9-25.88-19.07-25.41-19.52-37.65-4.46-27.77,37.65-23.06,58.83-10.35,96.95,12.71,38.12-9.88,42.36-8.94,81.42.37,15.38.75,28.86,2.57,42.4h0c-19.04-15.1-52.92-2.87-71.28-17.45-18.35-14.59-11.29-37.65-32-54.12-20.71-16.47-32.94-16.94-58.83-17.88-25.88-.94-23.06-4.71-19.3,25.41,3.77,30.12,10.82,48,35.3,78.59,16.6,20.76,32.34,50.99,47.8,78.23-47.11-15.09-102.47-21.3-131.57,18.59,19.29-12.1,39.86-18.02,46.05,0,6.19,18.02,9.95,21.94,27.84,31.98,17.88,10.04,22.84,17.1,25.54,29.34,2.7,12.24,23.88,24.94,42.23,42.83,18.35,17.88,48.95,47.77,74.36,35.89,25.41-11.88,42.19-11.6,63.44-7.41,2.09-5.2,3.79-10.35,4.98-15.48,9.88,16.32,27.31,14.83,44.29,10.3,17.11-4.56,22.76-5.06,26.86-4.77,1.35,22.54,2.01,55.51,2.08,81.01-16.94-50.06-51.92-71.77-51.92-71.77,0,0-3.53-2.09-2.1,2.6,48.41,38.05,48.23,96.76,48.23,96.76h5.57c10.59.99,11.52,0,11.52,0,0,0-.1-1.08-.27-3.03.76.02,1.43-.24,2.01-.72-.21,1.24-.4,2.49-.57,3.75,4.31-.49,6.74-2.09,6.74-2.09,0,0,11.02-44.61,22.85-57.99,0-.01,0-.02,0-.04,18.39,26.25,68.39,28.22,100.84,13.01,33.12-15.53,38.76-40.04,83-53.67,44.24-13.63,110.6-2.33,113.42-94.58,0,0-73.89,1.29-149.19,29.59ZM1727.97,708.02c-1.77-20.82-5.38-65.03-6.52-93.4-.04-.95-.08-1.93-.12-2.92,4.13.53,9.64,1.18,15.8,1.31-5.98,50.44-8.15,87.26-8.15,87.26,0,0-.58,3.82-1.01,7.75Z" fill="#9fe8a1"/><path d="M1813.61,519.35c3.76-1.12,7.09,2.53,9.47,5.65,2.38,3.12,6.28,6.44,9.75,4.61,1.93-1.02,2.82-3.38,2.74-5.56-.17-4.41-3.52-8.01-7.03-10.68-3.51-2.67-7.49-4.95-9.93-8.63-2.44-3.67-2.62-9.38,1.01-11.88,4.91-3.38,11.18,1.52,15.07,6.02,3.32,3.84,6.65,7.69,9.97,11.53,3.41-1.25,4.16-6.12,2.36-9.28-1.8-3.16-6.6-3.5-8.45-6.63-1.28-2.17,2.65-5.38,5.05-4.57,2.39.81,4.93,4.44,7.01,5.87,2.08,1.43,5.09,2.22,7.01.57,1.4-1.2,1.66-3.25,1.61-5.09-.38-11.87-9.93-21.43-12.88-32.93-.61-2.38-.8-5.24.96-6.96,1.78-1.72,4.83-1.38,6.83.09,1.99,1.47,3.18,3.76,4.31,5.96,1.88,3.69,3.79,7.37,6.04,10.85,1.33,2.06,2.85,4.12,5.05,5.2,2.2,1.08,5.22.83,6.65-1.16,3.89-5.42-7.8-13.45-3.21-18.29,2.93-3.08,7.9.35,10.63,3.63,2.62-1.99,3.12-5.89,2.07-9.01-1.05-3.12-3.33-5.65-5.52-8.11-12.06-13.56-23.76-29.26-24.42-47.39-.16-4.53,1.93-10.49,6.45-10.09,2.28.2,4.02,2.07,5.4,3.89,10.33,13.56,14.61,31.17,25.9,43.95,1.19,1.34,2.83,2.74,4.55,2.24.93-.27,1.63-1.06,2.16-1.87,3.94-6.05,1.5-14.17-2.01-20.48-1.49-2.68-3.19-5.37-3.49-8.42s1.4-6.56,4.41-7.09c4.12-.72,6.87,4.01,8.45,7.88,1.58,3.88,4.85,8.45,8.83,7.15,1.29-.42,2.31-1.43,3.12-2.53,3.31-4.5,2.83-9.16,2.26-14.45-.17-1.06-.29-2.14-.32-3.22-.37-11.19-2.29-22.63,1.63-23.87,3.92-1.23,6.17,2.92,7.97,11.1,1.81,8.19,1.9,13.01,6.72,7.25,4.82-5.76,4.37-15.21,4.61-25.97.24-10.77-2.03-23.44,1.44-25.9,3.48-2.47,6.39-.9,8.3,7.96,1.91,8.86,2.36,21.87,4.82,20.75,5.49-2.02,7.06-17.83,6.06-36.67-1.01-18.84-.22-23.66,3.59-23.89,3.81-.22,6.17,4.93,8.97,17.83,2.8,12.9,1.79,21.87,6.28,15.7,4.49-6.17,2.58-17.27,3.03-27.25.45-9.98,8.75-6.62,9.19-2.58.45,4.04-1.46,13.46,1.01,14.24,2.47.78,3.48-.22,9.2-11.33,5.72-11.1,11.33-15.92,15.59-12.67,4.26,3.25-14.47,31.06-34.31,58.87-17.61,24.67-38.97,44.31-48.99,56.92-25.1,31.57-55.45,93.82-94.48,130.74-3.04,2.87-6.43,5.77-10.57,6.33-8.03,1.09-14.16-6.73-18.45-13.61-1.52-2.44-3.07-4.99-3.35-7.84s1.15-6.1,3.9-6.92Z" fill="#9fe8a1"/><path d="M1683.25,591.08c8.24-5.66,31.3,13.18,51.96,1.57,20.66-11.61,18.47-40.79-5.32-45.81-23.79-5.02-27.55-4.39-30.36-19.45-2.82-15.06-5.64-21.65-20.97-18.51-15.34,3.14-24.42,0-30.68-19.77-6.26-19.77-1.57-30.43-33.81-42.04-32.24-11.61-39.76-18.82-51.65-12.24-11.9,6.59-5.95,20.71-2.5,32.94,3.44,12.24-4.38,24.47,1.25,50.2,5.63,25.73,20.03,32.94,36.94,48.32,16.9,15.37,9.7,28.24,25.98,48.32,16.28,20.08,36,14.75,41.63,5.65,5.63-9.1,6.57-21.65,17.53-29.18Z" fill="#9fe8a1"/><path d="M1570.06,485.48c1.34-.59,2.87-.54,4.33-.47,3.35.14,6.71.28,10.06.42.69.03,1.41.05,2.03-.26,1.06-.54,1.44-1.94,1.18-3.1-.26-1.16-1.01-2.15-1.74-3.09-3.58-4.62-7.16-9.24-10.74-13.85-1.51-1.95-3.04-3.94-3.91-6.25-.86-2.31-.97-5.04.31-7.14.54-.9,1.41-1.69,2.45-1.77.87-.07,1.7.35,2.44.82,3.04,1.95,5.35,4.83,7.69,7.58,4.14,4.86,8.56,9.49,13.24,13.83,1.74,1.61,4.02,3.31,6.26,2.52.84-.3,1.53-.91,2.38-1.18,2.67-.85,5.12,2.2,5.32,5.01.21,2.8-.84,5.59-.62,8.39.06.75.23,1.54.72,2.12,1.45,1.72,4.33.42,5.69-1.37,1.36-1.79,2.37-4.14,4.5-4.85,3.07-1.03,6.09,2.32,6.33,5.55.24,3.23-1.23,6.31-2,9.46-1.01,4.1-.81,8.49.55,12.49,2.92-1.04,4.41-5.54,7.46-4.98,1.37.25,2.33,1.57,2.63,2.92.3,1.36.07,2.77-.1,4.15-.89,6.88.98,24.14,6.57,14.82.33-.73.7-1.56,1.15-2.53,2.98-6.43,9.7-5.08,9.55,1.2-.15,6.28-2.54,12.71,1.79,13.9s4.18-7.03,10.89-17.34c6.71-10.32,12.08-2.69,9.4,5.53-2.68,8.22-9.99,23.18-6.56,25.72,3.43,2.54,6.41-3.29,13.07-9.07,6.66-5.79,10.65,3.84,5.73,9.07-4.92,5.23-13.28,13.61-11.93,15.85,1.34,2.24,8.35-.15,17.58-4.3,9.23-4.15,25.23-12.6,28.96-5.12,3.73,7.48-15.37,14.5-28.34,18.54-12.98,4.04-14.31,7.98-11.94,11h0c22.42,28.95,50.17,74.21,51.12,127.84-4.93,4.71-10.87,0-10.87,0,0,0-.13-26.36-8.2-54.91-6.2-21.94-20.76-47.57-38.53-71.94-6.2-8.55-14.87,9.39-25.42,14.76-10.59,5.38-13.28-3.29-8.95-7.77,4.33-4.49,10.29-11.81,10.76-15.1.47-3.29-4.05-5.83-10.65.15-6.6,5.98-9.96,4.34-8.77-2.54.46-2.66,1.19-6.48,1.91-10.17h0c.11-6.84-4.53-8.73-7.9-7.64-3.14,1.02-9.04,3.54-9.57.28-.55-3.39,4.41-5.24,6.62-7.87.56-.66,1.15-1.52.81-2.31-.43-1.01-1.87-.92-2.94-.68-3.39.76-6.83,1.32-10.28,1.65-2.19.21-4.47.33-6.54-.43-2.07-.76-3.88-2.62-3.94-4.83-.07-2.68,2.33-4.76,4.74-5.91,2.41-1.15,5.13-1.87,7.03-3.76,1.89-1.89,2.33-5.6.03-6.95-.8-.47-1.76-.56-2.69-.63-3.35-.28-7.06.7-10.05-.83-1.2-.61.2-2.59,1.38-3.22,1.19-.63,2.68-1.07,3.18-2.32.83-2.05-1.76-3.81-3.92-4.27-3.92-.84-7.99-.61-11.99-.91-4-.29-8.17-1.2-11.17-3.88-1.42-1.26-2.56-3.29-1.75-5.01.86-1.83,3.29-2.14,5.31-2.19,3.99-.11,7.99-.22,11.98-.33,2-.05,4.39-.35,5.25-2.16.48-1.01.3-2.23-.13-3.26-1.3-3.1-4.57-4.93-7.83-5.7-3.26-.77-6.66-.71-9.97-1.26-3.66-.61-7.19-1.97-10.31-3.98-1.01-.65-2.04-1.48-2.28-2.65-.28-1.44.82-2.87,2.16-3.45Z" fill="#9fe8a1"/><path d="M1380.86,404.46c1.75-4.84,2.14-8.38,2.14-8.38,0,0-23.22-77.29-106.01-102.14-81.26-24.39-136.56,12.3-168.12,38.86,4.58-7.98,10.54-15.86,18.26-24.04,0,0-3.36-12.85-6.71-26.26.84-1.44,1.68-2.87,2.52-4.3,6.08,12.67,11.99,22.74,11.99,22.74,5.19-4.93,10.87-9.11,16.87-12.6h0c-2.15-14.73-7.36-28.27-11.65-37.52.49-.74.99-1.48,1.48-2.22,7.48,9.66,18.42,24.02,24.36,32.94,11.8-4.56,24.24-6.92,36.22-7.46,0,0-11.33-38.39-21.19-55.23-.54-.87-1.09-1.74-1.64-2.61.54.8,1.09,1.67,1.64,2.61,19.27,30.79,34.17,55.36,34.17,55.36,6.55.43,12.83,1.4,18.61,2.84-3.47-27.5-11.84-46.39-11.84-46.39,0,0,15.68,22.56,23.62,50.2,27.78,10.26,49.09,16.4,64.6-1.22,2.06-34.33-9.05-70.83-31.19-95.53-10.55,6.2-30.28,10.6-30.28,10.6,0,0,12.79-8.63,22.92-18-3.95-3.57-8.19-6.79-12.7-9.6-3.96,2.57-18.54,12.18-33.92,23.8,10.44-11.71,26.52-27.91,26.52-27.91-9.66-4.77-20.41-7.76-32.18-8.49-4.23-.26-8.47-.37-12.72-.31,4.53-8.26,7.64-15.71,8.83-22.33,1.53-8.57,1.84-16.91,1.37-25.04,0,0-24.67-9.68-59.05-13.59,19.52-1.9,58.13,4,58.13,4-1.15-8.85-3.07-17.43-5.2-25.71-5.62-1.78-11.2-1.2-37.17-4.76,18.26-.08,35.3-2.35,35.3-2.35h0c-4.47-16.59-9.05-31.97-8.81-46.06-19.26,9.14-46.31,9.66-85.23,26.42-.94.41-1.87.83-2.79,1.25,0,0,5.13,8.1,12.13,28.55-8.93-15.57-19.83-24.56-19.84-24.58-12,6.85-21.35,15.55-28.93,25.92,0,0,12.76,14.85,22.23,35.75-9.22-12.27-29.17-24.98-29.17-24.98-8.31,14.61-14.21,31.84-19.52,51.32,0,0,0,0,0,0-7.01-14.83-16.14-29.16-28.01-40.31,0,0-10.44,9.81-24.82,28.13,6.4-10.54,19.24-32.97,19.24-32.97-3.42-2.72-7.04-5.19-10.87-7.34-56.51-31.68-80.92-19.77-121.43-25.59.01.59-2.74,49.14,5.54,84.57h0c16.28-3.54,35.61-6.35,61.91-12.45-10.53,7.32-59.51,21.29-59.51,21.29,2.04,6.48,4.56,12.24,7.66,16.81,2.11,3.1,4.49,6.38,7.1,9.81,33.13-10.26,51.85-9.42,51.85-9.42,0,0-27.28,8.15-46.4,16.38,9.03,11.25,19.95,23.61,31.33,35.85,0,0,14.08-5.34,40.66-10.22-9.46,3.44-35.35,15.88-35.35,15.88h0c15.61,16.53,31.67,32.48,44.58,44.75,0,0,.01.01.02.02-39.67-23.57-80.3-39.07-127.34-38.38-54.86.81-85.71,34.43-105.87,56.17,3.1,15.95,9.94,41.22,34.72,61.06,2.36,1.89,4.87,3.5,7.53,4.87.02-.04,15.67-27.62,33.68-54.41-15.22,27.19-21.23,51.28-21.7,58.69,3.92.9,8.06,1.43,12.44,1.66,0,0,13.67-42.86,28.73-65.08-11.91,27.67-18.79,54.81-17.81,65.04,20.39-1.07,44.89-7.27,72.95-14.86,0,0,11.15-38.51,16.17-54.61-4.92,34.39-5.09,51.71-5.09,51.71h0c46.56-11.06,90.8-4.25,115.73,6.39-10.18-2.33-24.71-3.48-45.12-1.14-54.19,6.19-100.59,34.16-128.98,83.68-28.38,49.52-32.14,72.08-37.98,85.15,21.31,13.76,47.53,15.84,70,9.85-.01-.04-5.97-24.12-15.71-46.73,15.89,33.48,20.38,37.9,25.4,43.55,2.11-.83,4.16-1.73,6.16-2.7,0,0-8.7-28.09-20.08-51.5,17.38,31.67,22.79,41.33,29.29,46.23,5.6-3.74,10.5-8.12,14.41-13.03,2.62-3.29,5.15-6.79,7.59-10.46-.04-.09-16.62-41.22-35.47-58.11,24.03,21.13,32.53,40.13,40.85,49.57,7.6-12.76,14.3-26.93,20.16-40.87-3.05-5.88-15.88-30.38-22.76-40.94,12.52,14.21,18.79,25.05,25.36,34.65,4.63-11.41,8.71-22.49,12.28-32.33,10.85-29.94,27.66-44.29,39.23-47.25-11.49,10.38-11.3,33.25-11.3,33.25,2.75-5.49,11.96-11.54,21.76-17.07,0,0,3.04,3.45,7.08,9.07-8.31,12.62-4.5,31.91-4.5,31.91,2.63-3.86,7.47-10.13,14.33-16.23,2.2,4.09,4.26,8.49,5.93,13.05-5.75,17.9.69,35.56.69,35.56,2.56-4.11,5.74-8.75,9-13.3h0s3.5,81.4,3.75,133.99c.26,52.59.76,132.22,3.96,195.42,3.21,63.2,13.63,188,13.63,188,0,0,5.51,9.04,38.26,7.64-6.6-65.42-14.4-153.3-17.68-204.3-3.27-51-6.8-154.21-8.49-202.19-1.69-47.98-2.39-97.31-2.14-126.76,0,0,0,0-.01,0,.79-.8,1.57-1.66,2.34-2.58,4.53,8.95,8.65,19.03,8.65,19.03,0,0,5.2-17.38,7.01-28.84-2.45-1.94-5.04-3.09-7.57-3.72.26-5.01,1.25-10.79,2.78-16.61,9.91,8.54,16.93,17.3,16.93,17.3,0,0,1.21-16.03-6.51-34.43-1.25-.29-2.56-.5-3.92-.65,1.78-3.64,3.73-6.88,5.79-9.45,7.71,5.76,14.28,13.5,19.74,23.65,2.14-7.66,3.52-28.01-7.12-39.5-11.01-1.59-20.65.06-27.14,1.88,2.35-1.89,4.74-3.3,6.82-4.01,28.24-9.66,59.45-2.86,91.24,9.82,0,0,1.8-22.37-.71-36.42,6.99,23.68,9.77,40.46,9.77,40.46h0c7.13,3.62,14.25,8.27,21.44,13.44h0s1.31-29.98-2.66-48.54c7.68,23.01,7.89,45.76,7.77,52.29,15.34,11.45,31.05,24.7,47.86,34.91,0-.05-.77-39.2,1.67-50.53,1.84,24.3,9.8,52.33,11.35,57.62,9.43,4.51,19.23,7.78,29.53,9.01,1.92.23,3.77.38,5.56.47-.3-2.27-3.59-27.1-8.41-41.75,9.19,23.69,12.29,34.4,16.38,41.67,23.47-1.74,32.93-16.75,36.65-26.7l.32-.24c-.05-.07-.1-.14-.16-.2ZM1044.92,155.84c-.43,2.42-.83,4.87-1.19,7.33-6.86,4.13-16.27,9.65-27.56,15.87,10.27-7.95,21.35-17.04,28.75-23.2Z" fill="#9fe8a1"/><path d="M1926.7,706.85c-242.02-18.83-485.78,6.6-728.64,18.25-400.38,19.21-801.54.86-1201.62-24.36v413.01h1930.26v-406.89Z" fill="#82d681"/><path d="M1516.36,637.74c-25.52,4.42-39.89,29.07-39.89,29.07-7.77,11.09-15.44,28.5-18.5,45.52.32-6.42.43-12.76.41-18.87,3.79-12.17,10.39-26.99,21.72-43.85,32.64-48.55,65.67-45.59,65.67-45.59,11.73,5.38,22.15,13.92,41.64,13.78-7.58-7.62-17.88-23.31-31.15-29.36-21.56-9.17-39.46-5.35-54.13.15-26.27,10.33-40.28,29.58-47.55,50.4h0s0,0,0,0c-.06.17-.12.35-.18.52,0,0,0,0,0,0,0,0-.03-87.05-36.13-153.43-8.16,78.52-6.87,130.38-6.87,130.38,0,0,1.65,14,5.37,32.84-6.16-12.34-13.22-24.2-22.04-35.7,0,0-28.91-42.21-100.47-38.9,22.73,35.81,68.75,63.6,105.92,94.9.32.33,22.29,23.25,36.71,46.68,0,0,0,0,0,.01-12.91-13.13-34.45-32.15-60.4-43.8-6.82-3.06-13.94-5.61-21.29-7.4-24.61-6.17-70.33.48-70.33.48,0,0,40.71,26.1,87.61,42.73,2.29.81,4.59,1.6,6.91,2.36,49.74,16.37,59.91,17.14,66.35,21.06.74-.16,1.46-.32,2.16-.48.71-.16,1.39-.31,2.05-.45.45-.1.88-.19,1.29-.29.09-.02.17-.04.26-.06.95-.21,1.81-.4,2.53-.56,1.58-.35,2.56-.57,2.56-.57,3.32-.74,6.2-1.38,6.2-1.38,0,0,5.38-21.88,21.33-33.79,15.92-11.88,32.57-22.08,32.64-22.12,8.83,2.65,18.06,5.83,27.84,8.71,25.62,7.57,48.78,8.25,60.33-5.71-28.06-4.94-59.38-42.39-88.62-37.3Z" fill="#82d681"/></g></g></svg>