<?xml version="1.0" encoding="UTF-8"?><svg id="Layer_1" xmlns="http://www.w3.org/2000/svg" width="800" height="438.83" viewBox="0 0 800 438.83"><path id="forest" d="M518.71,246.01c.5-.37,1-.75,1.52-1.09,1.33-.89,2.8-1.56,4.29-2.16.77-.62,1.61-1.11,2.5-1.47,4.68-3.07,8.69-6.83,10.99-11.47,4.1-8.26.79-16.91-5.98-33.8-1.42-3.54-2.77-6.89-4.06-10.06.02-.29.03-.59.17-.75.27-.32.97-.35,1.18-.71.21-.36.68-.69.83-1.09.07-.19-.14-.47-.35-.75.11-.21.21-.42.25-.65.07-.4.07-.85.07-1.28,0-.26-.21-.79-.25-1.06.07-.38.27-.79.17-1.12-.13-.42-.4-.84-.6-1.23-.2-.39-1.24-.19-1.51-.53-.27-.34.02-1.12-.31-1.41,0,0,0-.04,0-.09.05.01.09.02.1.02.1-.46.22-.95.22-1.44,0-.13-.02-.25-.06-.37.1-.38.3-.78.23-1.11-.1-.46-1.19-.59-1.38-1-.2-.43.45-1.37.16-1.74-.28-.38-1.12-.31-1.48-.61-.36-.31-.86-.3-1.28-.53-.02,0,.76-.21.74-.22.19-.53.07-1.28.07-1.87,0-.34-.48-.64-.58-.96,0-.01-.01-.03-.02-.04,0-.02,0-.03,0-.05-.04-.34.14-.75,0-1.05-.14-.32-.18-.77-.38-1.05-.18-.24-.24-.7-.46-.91,0,0-.1.11-.11.11-.31-.3-.65-.82-1.02-1.03-.37-.21-.94-.41-1.36-.52-.24-.06-.55.32-.85.65-.19-.08-.38-.14-.59-.14-.12,0-.31,0-.43,0-.03-.17-.1-.31-.19-.44-.06-.22-.13-.42-.24-.62-.19-.34-.2-.85-.49-1.1-.29-.25-.71-.43-1.07-.57-.23-.09-.5-.25-.76-.35-1.81-4.11-3.42-7.66-4.87-10.75.34-.32.45-.48.74-.84.23-.29.02-.86.03-1.3.08-.07.15-.15.2-.25.22-.41,1.07-.56,1.23-1.01.04-.12.02-.25-.03-.4,0-.36-.1-.77-.04-1.11.08-.45.51-.93.51-1.4,0-.63-.52-1.33-.65-1.92,0,0,0,.01,0,.02-.13-.37-.53-.64-.67-1-.15-.39.35-1.1.14-1.46-.21-.37-1.09-.29-1.34-.61-.26-.33-.71-.38-1.01-.67-.3-.29.21-1.58-.14-1.82-.28-.19-.91.17-1.34.21.04-.07.07-.12.11-.19.2-.38.45-.82.56-1.25.04-.17.03-.36.01-.56.27-.26.59-.53.59-.8,0-.36-.65-.67-.99-1-.04-.1-.08-.2-.11-.29-.03-.1-.05-.21-.06-.31.12-.45.5-1.03.33-1.33-.23-.39-.85-.66-1.17-.98s-.66-.82-1.05-1.05c-.39-.22-1-.22-1.45-.34-.2-.05-.42.05-.64.17-.26.03-.52.08-.78.08-.11,0-.25-.09-.35-.08-.07-.42-.24-.8-.44-1.15-.2-.37-.21-.96-.52-1.23-.31-.27-.77-.53-1.17-.68-.23-.08-.5.05-.78.18-.16-.27-.33-.52-.55-.52-.43,0-.89.35-1.28.49-.4.15-.84.34-1.16.61-.32.27-.32.82-.53,1.19-.91-.99-1.94-2.01-3.1-3.12,0-.2,0-.4,0-.6,0-.28-.23-.85-.27-1.14.07-.41.29-.85.18-1.2-.14-.45-.43-.91-.65-1.32-.22-.42-1.34-.2-1.63-.57-.29-.37.02-1.21-.33-1.52,0,0,0-.05,0-.1.05.01.1.02.11.02.11-.49.23-1.03.23-1.55,0-.14-.03-.27-.06-.4.11-.41.32-.84.24-1.19-.11-.49-1.28-.63-1.48-1.08-.21-.47.48-1.47.18-1.88-.31-.41-1.2-.33-1.59-.66-.38-.33-.93-.33-1.38-.57-.02,0,.82-.22.8-.23.2-.57.07-1.38.07-2.01,0-.37-.52-.69-.63-1.04,0-.02-.01-.03-.02-.05,0-.02,0-.03,0-.05-.05-.36.15-.81,0-1.13-.15-.34-.2-.83-.41-1.13-.19-.26-.26-.76-.49-.98,0,0-.11.12-.12.12-.33-.32-.7-.88-1.1-1.11-.4-.23-1.02-.44-1.47-.56-.26-.07-.59.35-.91.7-.2-.08-.41-.15-.64-.15-.13,0-.33,0-.46.01-.03-.18-.11-.33-.2-.47-.06-.23-.14-.46-.26-.66-.2-.37-.21-.92-.53-1.19-.31-.27-.76-.46-1.16-.61-.38-.14-.84-.49-1.28-.49-.22,0-.39.25-.55.52-.28-.13-.55-.26-.78-.18-.4.15-.86.41-1.17.68-.32.27-.32.87-.52,1.23-.2.36-.37.73-.44,1.15-.11,0-.25.08-.35.08-.26,0-.52-.05-.78-.08-.22-.12-.44-.22-.64-.17-.44.12-1.06.12-1.45.34-.39.23-.73.73-1.05,1.05-.06.06-.14.12-.21.17-4.15-3.49-7.75-6.5-10.94-9.08,0-.2,0-.4-.07-.58-.22-.63-.48-1.26-.72-1.81-.27-.63-1.31-.82-1.62-1.32-.38-.62-.16-1.69-.59-2.06-.54-.47-1.46-.31-2.08-.31-.58,0-1.08.29-1.59.76-.02.02-.07.04-.09.06-4.2-3.1-7.76-5.34-11.33-7.01-3.96-1.85-7.9-3.26-11.71-4.31-.02-.07-.04-.14-.09-.18,0,0,0-.04,0-.07.04,0,.08.02.08.01.08-.36.17-.76.17-1.14,0-.1-.02-.2-.05-.3.08-.3.24-.62.18-.88-.08-.36-.95-.47-1.1-.8-.16-.35.36-1.09.13-1.39-.23-.3-.89-.24-1.18-.49-.28-.24-.69-.24-1.02-.42-.01,0,.6-.17.59-.17.15-.42.05-1.02.05-1.49,0-.27-.38-.51-.47-.77,0-.01-.01-.02-.01-.04,0-.01,0-.03,0-.04-.03-.27.11-.6,0-.83-.11-.25-.15-.61-.31-.83-.14-.19-.19-.56-.36-.72,0,0-.08.09-.09.09-.24-.24-.52-.65-.82-.82-.29-.17-.75-.32-1.09-.41-.19-.05-.43.26-.67.52-.15-.06-.3-.11-.47-.11-.1,0-.25,0-.34,0-.02-.13-.08-.24-.15-.35-.05-.17-.11-.34-.19-.49-.15-.27-.16-.68-.39-.88-.23-.2-.56-.34-.86-.45-.28-.1-.62-.36-.94-.36-.16,0-.29.19-.41.38-.2-.09-.41-.19-.58-.13-.29.11-.63.3-.87.5-.23.2-.23.64-.39.91-.15.26-.28.54-.32.85-.08,0-.18.06-.26.06-.19,0-.39-.04-.58-.06-.16-.09-.33-.16-.47-.13-.33.09-.78.09-1.07.25-.29.17-.54.54-.78.77-.23.24-.7.44-.86.73-.13.22.16.65.24.99-.01.08-.03.15-.05.23-.02.07-.05.15-.08.22-.25.24-.73.47-.73.74,0,.2.24.4.44.59-.02.14-.02.29,0,.41.08.31.26.64.41.92.03.05.06.1.08.14-.32-.03-.78-.3-.99-.15-.25.18.12,1.13-.1,1.34-.23.21-.56.25-.75.5-.19.24-.84.18-.99.45-.06.11-.03.26,0,.41-7.01-.31-12.42.3-15.02.61-1.72.21-3.39.48-5.04.78-.11-.55.37-1.22.23-1.73-.16-.55.09-1.23-.09-1.73-.19-.55-.42-1.1-.63-1.58-.24-.55-1.15-.72-1.41-1.15-.07-.11-.1-.24-.14-.37-.13-.53-.07-1.17-.37-1.43-.47-.41-1.27-.27-1.82-.27-.5,0-.94.25-1.38.66-.34.32-1.17.43-1.48.94-.25.42-.38,1.02-.6,1.55-.13.3.02.73.09,1.14-.08.17-.17.34-.23.53-.17.48-.62.91-.78,1.44-.07.25-.08.52-.09.79-.04.27-.07.54-.13.81-.13.51-.5.98-.62,1.51-.05.21.08.46.23.71-.17.18-.35.36-.48.55-7.23,2.24-13.66,5.28-19.4,8.57-.3-.14-.59-.27-.73-.46-.35-.48-.14-1.31-.53-1.6-.49-.36-1.33-.24-1.9-.24-.53,0-.98.22-1.45.59-.36.28-1.22.38-1.54.84-.26.37-.39.91-.63,1.38-.14.27.02.65.09,1.01-.08.15-.17.3-.24.47-.17.43-.65.81-.81,1.28-.07.22-.08.46-.09.71-.04.24-.07.48-.14.72-.04.12-.09.24-.15.36-3.43,2.3-6.58,4.59-9.49,6.7-14.61,10.62-13.72,14.05-26.82,21.65-4.27,2.47-7.74,4.07-10.97,5.28-.24-.07-.46-.17-.68-.27-1.23.91-2.7,1.58-4.42,1.92-1.6.74-3.23,1.43-4.92,1.96-2.61.82-5.33,1.35-8.08,1.69-.03.06-.06.12-.07.19,0,.02,0,.05,0,.07-2.88.96-6.12,2.16-9.92,3.75-21.18,8.91-33.11,13.93-39.53,25.88-10.01,18.62-.58,42.8,7.53,55.06,5.32,8.05,11.58,13.17,24.08,23.41,3.14,2.57,12.32,10.3,26.61,18.64,13.26,7.74,26.66,15.55,41.6,20.47,19.21,6.34,40.07,7.63,60.58,8.77,19.24,1.07,39.49,1.9,56.8-5.47,14.77-6.29,25.66-17.86,39.78-25.19,6.87-3.57,14.4-6.08,21.47-9.35.07.02.13.04.2.07Z" fill="#89c540" opacity="0"/><path id="quarry" d="M784.06,70.66c-1.76-11.04-2.58-21.5-10.94-28.35-1.55-1.27-3.15-2.23-4.91-3.1-9.15-4.55-22.53-4.64-64.15-5.25-28.58-.42-29.18-3.06-56.39-.92-16.81,1.32-13.69,2.56-31.61,4.22-21.2,1.96-32.31.83-79.01,1.56-3.41.05-10.92.19-20.7,1.46-14.23,1.84-23.56,4.84-25.93,5.57-12.1,3.73-24.58,7.57-25.06,13.76-.52,6.67,13.4,8.39,22.24,22.94,5,8.25,3.13,12.29,6,21.53,5.76,18.56,18.88,20.13,41.06,43.12,22.3,23.12,16.79,28.51,32.12,38.12,17.16,10.76,35.59,10.65,46.59,10.59,21.43-.13,22.91-5.99,51.18-10.94,32.2-5.64,39.78.34,72.94-7.47,10.92-2.57,22.6-5.94,34-15.47,11.05-9.23,15.86-19.57,16.82-21.71,4.49-9.97,4.93-18.57,5.18-24.47.72-17.39-4.84-16.46-9.41-45.18Z" fill="#796150" opacity="0"/><path id="urban" d="M800,179.53c-6.29.6-12.56,1.26-18.79,1.99l-.22-4.05h0c-.01-.26-.19-.52-.54-.73-.04-.02-.09-.03-.12-.05l-.34-23.16c.06-.03.09-.07.13-.11.08.9.83,1.61,1.76,1.61.98,0,1.78-.79,1.78-1.78,0-.58-.28-1.08-.71-1.41,0,0,0-.01,0-.02,0-.06-.03-.12-.06-.18h.01l-.3-.56h-.01c-.04-.07-.09-.13-.18-.18-.03-.02-.07-.03-.11-.04-.01-.05-.05-.1-.12-.15,0,0-.01,0-.02,0,.56-.35,1.14-1.16,1.16-1.9,0-.56-.27-.92-.75-.98-.98-.12-2.69,1.14-3.47,3.69-.49-.92-1.25-.97-1.69-.89-1.22.2-2.5,1.65-2.48,2.81,0,.41.2.69.51.8,0,0,0,.01,0,.02-.04.01-.08.02-.11.04-.09.05-.14.11-.18.18h-.01l-.3.56h.01c-.03.06-.06.12-.06.18,0,0,0,0,0,.01-.43.32-.72.84-.72,1.42,0,.98.79,1.78,1.78,1.78s1.78-.79,1.78-1.78c0-.58-.28-1.08-.71-1.41,0,0,0-.01,0-.02,0-.06-.03-.12-.06-.18h.01l-.3-.56h-.01c-.04-.07-.09-.13-.18-.18-.03-.02-.07-.03-.11-.04,0-.04-.03-.08-.08-.11.31-.15.6-.41.79-.76.17-.3.21-.62.12-.84-.05-.13-.15-.22-.28-.25-.13-.04-.29,0-.46.09-.22.13-.47.39-.55.68-.03.1.04.21.14.23.1.03.21-.04.23-.14.04-.16.2-.35.37-.45.1-.06.15-.06.17-.05.07.13.05.33-.07.54-.29.52-.79.76-1.08.68-.22-.05-.27-.28-.27-.46-.02-.98,1.11-2.25,2.16-2.43.6-.1,1.06.21,1.35.86-.34.12-.59.41-.64.78-.16.12-.26.26-.26.41,0,.17.12.35.34.48-.05,3.09-.3,20.33-.34,23.16-.04.02-.09.03-.13.05-.35.2-.53.46-.54.73h0l-.25,4.56c-25.01,3.06-49.52,7.19-73.41,12.33l-.2-3.62h0c-.01-.26-.19-.52-.54-.73-.04-.02-.09-.03-.12-.05l-.34-23.16c.06-.03.09-.07.13-.11.08.9.83,1.61,1.76,1.61.98,0,1.78-.79,1.78-1.78,0-.58-.28-1.08-.71-1.41,0,0,0-.01,0-.02,0-.06-.03-.12-.06-.18h.01l-.3-.56h-.01c-.04-.07-.09-.13-.18-.18-.03-.02-.07-.03-.11-.04-.01-.05-.05-.1-.12-.15,0,0-.01,0-.02,0,.56-.35,1.14-1.16,1.16-1.9,0-.56-.27-.92-.75-.98-.98-.12-2.69,1.14-3.47,3.69-.49-.92-1.25-.97-1.69-.89-1.22.2-2.5,1.65-2.48,2.81,0,.41.2.69.51.8,0,0,0,.01,0,.02-.04.01-.08.02-.11.04-.09.05-.14.11-.18.18h-.01l-.3.56h.01c-.03.06-.06.12-.06.18,0,0,0,0,0,.01-.43.32-.72.84-.72,1.42,0,.98.79,1.78,1.78,1.78s1.78-.79,1.78-1.78c0-.58-.28-1.08-.71-1.41,0,0,0-.01,0-.02,0-.06-.03-.12-.06-.18h.01l-.3-.56h-.01c-.04-.07-.09-.13-.18-.18-.03-.02-.07-.03-.11-.04,0-.04-.03-.08-.08-.11.31-.15.6-.41.79-.76.17-.3.21-.62.12-.84-.05-.13-.15-.22-.28-.25-.13-.04-.29,0-.46.09-.22.13-.47.39-.55.68-.03.1.04.21.14.23.1.03.21-.04.23-.14.04-.16.2-.35.37-.45.1-.06.15-.06.17-.05.07.13.05.33-.07.54-.29.52-.79.76-1.08.68-.22-.05-.27-.28-.27-.46-.02-.98,1.11-2.25,2.16-2.43.6-.1,1.06.21,1.35.86-.34.12-.59.41-.64.78-.16.12-.26.26-.26.41,0,.17.12.35.34.48-.05,3.09-.3,20.33-.34,23.16-.04.02-.09.03-.13.05-.35.2-.53.46-.54.73h0l-.25,4.54c-29.07,6.42-57.22,14.33-84.29,23.62l-.15-2.79h0c-.01-.26-.19-.52-.54-.73-.04-.02-.09-.03-.12-.05l-.34-23.16c.06-.03.09-.07.13-.11.08.9.83,1.61,1.76,1.61.98,0,1.78-.79,1.78-1.78,0-.58-.28-1.08-.71-1.41,0,0,0-.01,0-.02,0-.06-.03-.12-.06-.18h.01l-.3-.56h-.01c-.04-.07-.09-.13-.18-.18-.03-.02-.07-.03-.11-.04-.01-.05-.05-.1-.12-.14,0,0-.01,0-.02,0,.56-.35,1.14-1.16,1.16-1.9,0-.56-.27-.92-.75-.98-.98-.12-2.69,1.14-3.47,3.69-.49-.92-1.25-.97-1.69-.89-1.22.2-2.5,1.65-2.48,2.81,0,.41.2.69.51.8,0,0,0,.01,0,.02-.04.01-.08.02-.11.04-.09.05-.14.11-.18.18h-.01l-.3.56h.01c-.03.06-.06.12-.06.18,0,0,0,0,0,.01-.43.32-.72.84-.72,1.42,0,.98.79,1.78,1.78,1.78s1.78-.79,1.78-1.78c0-.58-.28-1.08-.71-1.41,0,0,0-.01,0-.02,0-.06-.03-.12-.06-.18h.01l-.3-.56h-.01c-.04-.07-.09-.13-.18-.18-.03-.02-.07-.03-.11-.04,0-.04-.03-.08-.08-.11.31-.15.6-.41.79-.76.17-.3.21-.62.12-.84-.05-.13-.15-.22-.28-.25-.13-.04-.29,0-.46.09-.22.13-.47.39-.55.68-.03.1.04.21.14.23.1.03.21-.04.23-.14.04-.16.2-.35.37-.45.1-.06.15-.06.17-.05.07.13.05.33-.07.54-.29.52-.79.76-1.08.68-.22-.05-.27-.28-.27-.46-.02-.98,1.11-2.25,2.16-2.43.6-.1,1.06.21,1.35.86-.34.12-.59.41-.64.78-.16.12-.26.26-.26.41,0,.17.12.35.34.48-.05,3.09-.3,20.33-.34,23.16-.04.02-.09.03-.12.05-.35.2-.53.46-.54.73h0l-.23,4.22c-27.52,9.62-53.89,20.67-78.94,33l-.11-1.99h0c-.01-.26-.19-.52-.54-.73-.04-.02-.09-.03-.12-.05l-.34-23.16c.06-.03.09-.07.13-.11.08.9.83,1.61,1.76,1.61.98,0,1.78-.79,1.78-1.78,0-.58-.28-1.08-.71-1.41,0,0,0-.01,0-.02,0-.06-.03-.12-.06-.18h.01l-.3-.56h-.01c-.04-.07-.09-.13-.18-.18-.03-.02-.07-.03-.11-.04-.01-.05-.05-.1-.12-.14,0,0-.01,0-.02,0,.56-.35,1.14-1.16,1.16-1.9,0-.56-.27-.92-.75-.98-.98-.12-2.69,1.14-3.47,3.69-.49-.92-1.25-.97-1.69-.89-1.22.2-2.5,1.65-2.48,2.81,0,.41.2.69.51.8,0,0,0,.01,0,.02-.04.01-.08.02-.11.04-.09.05-.14.11-.18.18h-.01l-.3.56h.01c-.03.06-.06.12-.06.18,0,0,0,0,0,.01-.43.32-.72.84-.72,1.42,0,.98.79,1.78,1.78,1.78s1.78-.79,1.78-1.78c0-.58-.28-1.08-.71-1.41,0,0,0-.01,0-.02,0-.06-.03-.12-.06-.18h.01l-.3-.56h-.01c-.04-.07-.09-.13-.18-.18-.03-.02-.07-.03-.11-.04,0-.04-.03-.08-.08-.11.31-.15.6-.41.79-.76.17-.3.21-.62.12-.84-.05-.13-.15-.22-.28-.25-.13-.04-.29,0-.46.09-.22.13-.47.39-.55.68-.03.1.04.21.14.23.1.03.21-.04.23-.14.04-.16.2-.35.37-.45.1-.06.15-.06.17-.05.07.13.05.33-.07.54-.29.52-.79.76-1.08.68-.22-.05-.27-.28-.27-.46-.02-.98,1.11-2.25,2.16-2.43.6-.1,1.06.21,1.35.86-.34.12-.59.41-.64.78-.16.12-.26.26-.26.41,0,.17.12.35.34.48-.05,3.09-.3,20.33-.34,23.16-.04.02-.09.03-.12.05-.35.2-.53.46-.54.73h0l-.22,4c-31.16,15.61-60.23,33.22-86.84,52.58l-.03-.63h0c-.01-.26-.19-.52-.54-.73-.04-.02-.09-.03-.12-.05l-.34-23.16c.06-.03.09-.07.13-.11.08.9.83,1.61,1.76,1.61.98,0,1.78-.79,1.78-1.78,0-.58-.28-1.08-.71-1.41,0,0,0-.01,0-.02,0-.06-.03-.12-.06-.18h.01l-.3-.56h-.01c-.04-.07-.09-.13-.18-.18-.03-.02-.07-.03-.11-.04-.01-.05-.05-.1-.12-.15,0,0-.01,0-.02,0,.56-.35,1.14-1.16,1.16-1.9,0-.56-.27-.92-.75-.98-.98-.12-2.69,1.14-3.47,3.69-.49-.92-1.25-.97-1.69-.89-1.22.2-2.5,1.65-2.48,2.81,0,.41.2.69.51.8,0,0,0,.01,0,.02-.04.01-.08.02-.11.04-.09.05-.14.11-.18.18h-.01l-.3.56h.01c-.03.06-.06.12-.06.18,0,0,0,0,0,.01-.43.32-.72.84-.72,1.42,0,.98.79,1.78,1.78,1.78s1.78-.79,1.78-1.78c0-.58-.28-1.08-.71-1.41,0,0,0-.01,0-.02,0-.06-.03-.12-.06-.18h.01l-.3-.56h-.01c-.04-.07-.09-.13-.18-.18-.03-.02-.07-.03-.11-.04,0-.04-.03-.08-.08-.11.31-.15.6-.41.79-.76.17-.3.21-.62.12-.84-.05-.13-.15-.22-.28-.25-.13-.04-.29,0-.46.09-.22.13-.47.39-.55.68-.03.1.04.21.14.23.1.03.21-.04.23-.14.04-.16.2-.35.37-.45.09-.06.15-.06.17-.05.07.13.05.33-.07.54-.29.52-.79.76-1.08.68-.22-.05-.27-.28-.27-.46-.02-.98,1.11-2.25,2.16-2.43.6-.1,1.06.21,1.35.86-.34.12-.59.41-.64.78-.16.12-.26.26-.26.41,0,.17.12.35.34.48-.05,3.09-.3,20.33-.34,23.16-.04.02-.09.03-.12.05-.35.2-.53.46-.54.73h0l-.2,3.54c-35.13,26.03-65.86,55.14-91.34,86.71-.09-.14-.23-.28-.43-.39-.04-.02-.09-.03-.12-.05l-.34-23.16c.06-.03.09-.07.13-.11.08.9.83,1.61,1.76,1.61.98,0,1.78-.79,1.78-1.78,0-.58-.28-1.08-.71-1.41,0,0,0-.01,0-.02,0-.06-.03-.12-.06-.18h.01l-.3-.56h-.01c-.04-.07-.09-.13-.18-.18-.03-.02-.07-.03-.11-.04-.01-.05-.05-.1-.12-.14,0,0-.01,0-.02,0,.56-.35,1.14-1.16,1.16-1.9,0-.56-.27-.92-.75-.98-.98-.12-2.69,1.14-3.47,3.69-.49-.92-1.25-.97-1.69-.89-1.22.2-2.5,1.65-2.48,2.81,0,.41.2.69.51.8,0,0,0,.01,0,.02-.04.01-.08.02-.11.04-.09.05-.14.11-.18.18h-.01l-.3.56h.01c-.03.06-.06.12-.06.18,0,0,0,0,0,.01-.43.32-.72.84-.72,1.42,0,.98.79,1.78,1.78,1.78s1.78-.79,1.78-1.78c0-.58-.28-1.08-.71-1.41,0,0,0-.01,0-.02,0-.06-.03-.12-.06-.18h.01l-.3-.56h-.01c-.04-.07-.09-.13-.18-.18-.03-.02-.07-.03-.11-.04,0-.04-.03-.08-.08-.11.31-.15.6-.41.79-.76.17-.3.21-.62.12-.84-.05-.13-.15-.22-.28-.25-.13-.04-.29,0-.46.09-.22.13-.47.39-.55.68-.03.1.04.21.14.23.1.03.21-.04.23-.14.04-.16.2-.35.37-.45.1-.06.15-.06.17-.05.07.13.05.33-.07.54-.29.52-.79.76-1.08.68-.22-.05-.27-.28-.27-.46-.02-.98,1.11-2.25,2.16-2.43.6-.1,1.06.21,1.35.86-.34.12-.59.41-.64.78-.16.12-.26.26-.26.41,0,.17.12.35.34.48-.05,3.09-.3,20.33-.34,23.16-.04.02-.09.03-.12.05-.35.2-.53.46-.54.73h0l-.25,4.53c-5.13,6.55-10.05,13.19-14.72,19.94,157.56.04,315.12.08,472.68.12v-242.95ZM782.52,148.21c.28.04.42.24.42.6-.01.64-.56,1.37-1.04,1.63-.16.09-.3.11-.38.06-.02-.01-.04-.05-.05-.09-.02-.11,0-.31.15-.51.16-.22.39-.31.44-.29.04.1.14.15.24.11.1-.04.15-.15.11-.25-.05-.14-.16-.22-.31-.24-.26-.03-.59.15-.8.45-.18.25-.26.55-.21.8.03.15.1.27.21.34.04.03.1.02.15.04,0,0,0,.01,0,.02-.04.01-.08.02-.11.04-.09.05-.14.11-.18.18h-.01l-.3.56h.01c-.03.06-.06.12-.06.18,0,0,0,0,0,.01-.3.22-.52.53-.63.9-.03-.03-.07-.07-.11-.1-.05-.38-.31-.68-.68-.79.71-2.59,2.36-3.73,3.13-3.65ZM704.93,161.49c.28.04.42.24.42.6-.01.64-.56,1.37-1.04,1.63-.16.09-.3.11-.38.06-.02-.01-.04-.05-.05-.09-.02-.11,0-.31.15-.51.16-.22.39-.31.44-.29.04.1.14.15.24.11.1-.04.15-.15.11-.25-.05-.14-.16-.22-.31-.24-.26-.03-.59.15-.8.45-.18.25-.26.55-.21.8.03.15.1.27.21.34.04.03.1.02.15.04,0,0,0,.01,0,.02-.04.01-.08.02-.11.04-.09.05-.14.11-.18.18h-.01l-.3.56h.01c-.03.06-.06.12-.06.18,0,0,0,0,0,.01-.3.22-.52.53-.63.9-.03-.03-.07-.07-.11-.1-.05-.38-.31-.68-.68-.79.71-2.59,2.36-3.73,3.13-3.65ZM616.51,186.86c.28.04.42.24.42.6-.01.64-.56,1.37-1.04,1.63-.16.09-.3.11-.38.06-.02-.01-.04-.05-.05-.09-.02-.11,0-.31.15-.51.16-.22.39-.31.44-.29.04.1.14.15.24.11.1-.04.15-.15.11-.25-.05-.14-.16-.22-.31-.24-.26-.03-.59.15-.8.45-.18.25-.26.55-.21.8.03.15.1.27.21.34.04.03.1.02.15.04,0,0,0,.01,0,.02-.04.01-.08.02-.11.04-.09.05-.14.11-.18.18h-.01l-.3.56h.01c-.03.06-.06.12-.06.18,0,0,0,0,0,.01-.3.22-.52.53-.63.9-.03-.03-.07-.07-.11-.1-.05-.38-.31-.68-.68-.79.71-2.59,2.36-3.73,3.13-3.65ZM533.51,222.09c.28.04.42.24.42.6-.01.64-.56,1.37-1.04,1.63-.16.09-.3.11-.38.06-.02-.01-.04-.05-.05-.09-.02-.11,0-.31.15-.51.16-.22.39-.31.44-.29.04.1.14.15.24.11.1-.04.15-.15.11-.25-.05-.14-.16-.22-.31-.24-.26-.03-.59.15-.8.45-.18.25-.26.55-.21.8.03.15.1.27.21.34.04.03.1.02.15.04,0,0,0,.01,0,.02-.04.01-.08.02-.11.04-.09.05-.14.11-.18.18h-.01l-.3.56h.01c-.03.06-.06.12-.06.18,0,0,0,0,0,.01-.3.22-.52.53-.63.9-.03-.03-.07-.07-.11-.1-.05-.38-.31-.68-.68-.79.71-2.59,2.36-3.73,3.13-3.65ZM442.69,278.04c.28.04.42.24.42.6-.01.64-.56,1.37-1.04,1.63-.16.09-.3.11-.38.06-.02-.01-.04-.05-.05-.09-.02-.11,0-.31.15-.51.16-.22.39-.31.44-.29.04.1.14.15.24.11.1-.04.15-.15.11-.25-.05-.14-.16-.22-.31-.24-.26-.03-.59.15-.8.45-.18.25-.26.55-.21.8.03.15.1.27.21.34.04.03.1.02.15.04,0,0,0,.01,0,.02-.04.01-.08.02-.11.04-.09.05-.14.11-.18.18h-.01l-.3.56h.01c-.03.06-.06.12-.06.18,0,0,0,0,0,.01-.3.22-.52.53-.63.9-.03-.03-.07-.07-.11-.1-.05-.38-.31-.68-.68-.79.71-2.59,2.36-3.73,3.13-3.65ZM347.55,368.63c.28.04.42.24.42.6-.01.64-.56,1.37-1.04,1.63-.16.09-.3.11-.38.06-.02-.01-.04-.05-.05-.09-.02-.11,0-.31.15-.51.16-.22.39-.31.44-.29.04.1.14.15.24.11.1-.04.15-.15.11-.25-.05-.14-.16-.22-.31-.24-.26-.03-.59.15-.8.45-.18.25-.26.55-.21.8.03.15.1.27.21.34.04.03.1.02.15.04,0,0,0,.01,0,.02-.04.01-.08.02-.11.04-.09.05-.14.11-.18.18h-.01l-.3.56h.01c-.03.06-.06.12-.06.18,0,0,0,0,0,.01-.3.22-.52.53-.63.9-.03-.03-.07-.07-.11-.1-.05-.38-.31-.68-.68-.79.71-2.59,2.36-3.73,3.13-3.65Z" fill="#676767" opacity="0"/><path id="river" d="M470.59,22.6H0v183.12c6.69,3.98,14.82,8.15,24.37,11.75,6.11,2.31,11.89,4.04,17.18,5.36,1.6-11.06,9.13-20.18,19.22-23.23,12.29-3.72,26.34,2.21,32.94,14.59,2.18-2.88,11.08-13.95,26.82-16.71,9.61-1.68,17.46.48,21.41,1.88,5.12-4.81,15.75-13.31,31.29-16,5.1-.88,9.72-.97,13.65-.71,2.39-.02,8.49-2.93,18.71-9.06,0,0,0,0,0,0,.04-.04,18.06-18.68,38.12-33.53,10.42-7.72,21.43-14.41,31.71-20,3.55-1.93,7.02-3.73,10.34-5.4,0,0,.06-.03.07-.04,7.31-3.65,21.15-9.19,31.99-14.09,4.09-1.85,8.36-3.79,13.96-6.79,16.93-9.07,27.02-17.64,32.63-21.79,17.65-13.08,28.17-10.09,57.88-20.47,14.12-4.93,34.19-13.45,57.18-28.88h-8.88Z" fill="#89c540" opacity="0"/><path id="prairie" d="M357.28,350.32c9.25-17.56,6.63-38.65-4.54-53.17-2.48-2.77-1.96-13.24-8.31-7.74.18,5.07-5.19,4.82-6.32.83.89-1.63,2.27-3.42,1.31-5.4,0,0,0,0,0,0-1.12-1.77.73-1.18-1.89-2.46-.11-.77.19-1.57-.96-1.07,1.48-2.22-.16-5.93-3.29-5.2-.33-2.81-4.05-2.83-4.52.01-5.17-1.6-2.49,5.31-5.49,5.8-.26,9.99-17.96-2.01-25.32-3.32.14-2.28,3.04-4.39,1.51-7.17,0,0,0,0,0,.01-1.45-2.21,1.06-1.32-2.3-3-.19-1,.36-1.9-1.18-1.29,1.81-2.7-.19-7.24-4-6.34-.39-3.42-4.94-3.45-5.51.02-3.67-1.45-5.18,2.92-4.95,5.9,1.87.55-2.89.32-1.58,2.37-11.05-10.63-28.59-19.19-35.67-31.14-1.18-8.51-.7-15.02-5.01-21.19-5.94-8.17-8.8,12.73-9.29,15.64-6.56-2.28-1.72-2.16-3.39-10.56-1.26-2.47,1.46-3.28-.37-5.33-.07-5.32-2.13-9.75-1.75-15.04-2.97-2.07-.82-2.9-1.59-6.11-4.3-10.36-10.2-4.19-11.03,4.18-3.92,4.66,0,28-6.21,25.72,2.28-3.38,1.13-5.97.65-9.28.98-2.06,2.96-4.5,1.64-7.11,0,0,0,0,0,.01-1.59-2.44,1.16-1.45-2.53-3.29-.2-1.1.4-2.08-1.29-1.41,1.98-2.97-.21-7.94-4.39-6.96-.43-3.78-5.39-3.77-6.04.02-2.85-1.03-5.04.92-5.02,3.96-3.44-.64-5.59-3.85-10.47-2.84,7-3.23,8.98-6.81-1.07-8.03,0-4.04-15.14-3.96-13.85.68,9.11,6.91-5.17,4.48-1.67,8.78-7.46-.92-4.38,6.77,1.69,5.78-9.38,5.62,5.77,3,7.32,5.49-2.58-.9-5.21.26-7.44,1.4,0,0,0,0,0,0-3.78,4.4,3.74,6.2,6.97,5.54,9.47,9.31-4.52,12.3-11.92,14.51,2.23-3.39,1.58-6.03.66-9.36,1.16-2.11,3.04-4.56,1.75-7.22,0,0,0,0,0,.01-1.59-2.44,1.16-1.45-2.53-3.29-.2-1.1.4-2.08-1.29-1.41,1.99-2.97-.21-7.94-4.39-6.96-.32-1.15-1-3.23-2.55-2.54-1.18-1.4-3.34,1.21-3.49,2.55-1.66-.39-2.95-.41-4.13.87-.76,1.71-1.54,3.72-1.3,5.6,1.69.3-1.42.78-1.9,1.29.73,3.72-2.22.36-.69,5.34-3.17,3.17-3.47,10.36,2.23,11.54.13,3.94,2.28,6.33,6.02,6.62-9.48,2.74-14.73,2.81-12.02-8.04-2.15-3.4.02-7.27-2.58-10.57.1-2.5,1.44-3.68-1.17-5.21,2.31-7.42-7.83-12.95-8.23-4.31-2.42,2.41-3.32,20.93-4.64,13.86-.48-.51-3.6-.98-1.9-1.29.25-3.3-1.4-8.04-5.43-6.47-.62-3.79-5.62-3.79-6.04-.02-4.18-.98-6.37,3.99-4.39,6.96-1.7-.67-1.09.32-1.29,1.41-3.68,1.84-.94.85-2.53,3.29,0,0,0,0,0-.01-1.27,2.73.53,5.02,1.75,7.22-.03,1.98-1.9,4.48-.54,6-2.32.88-.98-2.51-3-4.09.17-2.48,1.51-3-1.24-4.38,1.19-5.11-1.57-3.85-2.76-7.29-6.27-1.9-7.66,6.94-8.37,10.81-.73,6.7-6.02,3.59-11.4,4.4,1.91-3.16,13.13-.74,8.68-7.32,0,0,0,0,0,0-2.23-1.14-4.86-2.3-7.44-1.4,1.52-2.48,16.72.12,7.32-5.49,6.13.97,9.16-6.71,1.69-5.78,3.52-4.27-10.77-1.9-1.67-8.78,1.3-4.65-13.84-4.72-13.85-.68-10.03,1.22-8.09,4.8-1.07,8.03-5.9-.99-24.42,7.72-9.16,8.98-5.94,2.56-1.02,6.24,3.27,5.62-2.95,2.43.48,4.33,3.08,3.23,2.33,1.86,5.62-.41,4.59,4.03-4.98-1.03-18.45,9.01-16.15.88-3.42-1.72-.22-3.02-2.32-5.85-5.64-7.98-10.33,2.8-10.58,8.13-22.42,40.51-22.45,56.63-17.03,115.72.76,62.14,60.33,58.05,101.5,46.36,79.65,2.08,183.08,23.9,235.59-53.21Z" fill="#89c540" opacity="0"/></svg>