<?xml version="1.0" encoding="UTF-8"?><svg xmlns="http://www.w3.org/2000/svg" width="500" height="500" xmlns:xlink="http://www.w3.org/1999/xlink" viewBox="0 0 500 500"><defs><clipPath id="clippath"><rect id="Layer_1-3" width="500" height="500" fill="none"/></clipPath><linearGradient id="linear-gradient" x1="173.74" y1="245.5" x2="139.43" y2="245.5" gradientUnits="userSpaceOnUse"><stop offset="0" stop-color="#262626" stop-opacity=".5"/><stop offset="1" stop-color="#262626" stop-opacity="0"/></linearGradient><linearGradient id="linear-gradient-2" x1="325.58" y1="245.5" x2="359.89" y2="245.5" xlink:href="#linear-gradient"/><linearGradient id="linear-gradient-3" x1="250.86" y1="331.06" x2="250.86" y2="422.49" gradientUnits="userSpaceOnUse"><stop offset="0" stop-color="#262626" stop-opacity=".5"/><stop offset=".16" stop-color="#262626" stop-opacity=".31"/><stop offset=".5" stop-color="#262626" stop-opacity=".07"/><stop offset="1" stop-color="#262626" stop-opacity="0"/></linearGradient></defs><g isolation="isolate"><g id="Layer_2"><g id="Layer_1-2"><g clip-path="url(#clippath)"><path id="body" d="M99.57,500h300.19l-16.61-74.75c-7.53-33.86-37.56-57.95-72.25-57.95h-122.47c-34.69,0-64.72,24.09-72.25,57.95l-16.61,74.75Z" fill="#fff"/><g id="skin-parts"><path d="M223.14,371.08c9.29,17.13,18.58,34.27,27.88,51.4,9.02-17.13,18.04-34.27,27.06-51.4.2-15.46.39-30.92.59-46.38h-55.29c-.08,15.46-.15,30.92-.23,46.38Z" fill="#d1ffb6"/><path d="M179.36,240.33c0,8.97,4.33,25.31-1,31.66-2.27,2.7-13.46,2.08-18.13.48-13.25-4.53-20.79-17.78-20.79-30.57s7.58-24.73,19.09-24.73c22.5,0,20.84,10.37,20.84,23.15Z" fill="#d0feb6"/><path d="M319.96,240.33c0,8.97-4.33,25.31,1,31.66,2.27,2.7,13.46,2.08,18.13.48,13.25-4.53,20.79-17.78,20.79-30.57s-7.58-24.73-19.09-24.73c-22.5,0-20.84,10.37-20.84,23.15Z" fill="#d0feb6"/><path d="M331.7,189.4c0,45.31,6.71,146.05-82.04,146.05s-82.04-100.74-82.04-146.05,36.73-82.04,82.04-82.04,82.04,36.73,82.04,82.04Z" fill="#d1ffb6"/></g><g id="blush"><circle cx="200.3" cy="250.14" r="10.44" fill="#ff553e" mix-blend-mode="multiply" opacity=".6"/><circle cx="299.02" cy="250.14" r="10.44" fill="#ff553e" mix-blend-mode="multiply" opacity=".6"/></g><g id="face-features"><path d="M152.11,230.21c4.8,4.1,9.59,8.19,14.39,12.29" fill="none" stroke="#262626" stroke-linecap="round" stroke-miterlimit="10" stroke-width="2.7"/><path d="M156.52,254.02c1.99-4.73,4.68-9.11,7.92-12.89" fill="none" stroke="#262626" stroke-linecap="round" stroke-miterlimit="10" stroke-width="2.7"/><path d="M347.21,230.21c-4.57,4.1-9.14,8.19-13.71,12.29" fill="none" stroke="#262626" stroke-linecap="round" stroke-miterlimit="10" stroke-width="2.7"/><path d="M342.8,254.02c-1.99-4.73-4.68-9.11-7.92-12.89" fill="none" stroke="#262626" stroke-linecap="round" stroke-miterlimit="10" stroke-width="2.7"/><circle cx="213" cy="221.4" r="10.44" fill="#262626"/><circle cx="286.33" cy="221.4" r="10.44" fill="#262626"/><path d="M234.46,265.03s5.05,12.19,16.56,12.19,17.26-12.19,17.26-12.19" fill="none" stroke="#262626" stroke-linecap="round" stroke-miterlimit="10" stroke-width="2.84"/><path d="M246.05,259.12c4.86.7,10.7,3.19,14.97-.02,4.26-3.21-3.84-32.58-4.4-48.97" fill="none" stroke="#262626" stroke-linecap="round" stroke-miterlimit="10" stroke-width="2.84"/><path d="M226.63,196.37c.44,2.36-6.03,4.73-14.46,5.3-8.43.57-15.62-.87-16.06-3.23-.44-2.36,6.03-4.73,14.46-5.3,8.43-.57,15.62.87,16.06,3.23Z" fill="#262626"/><path d="M271.07,196.37c-.44,2.36,6.03,4.73,14.46,5.3,8.43.57,15.62-.87,16.06-3.23.44-2.36-6.03-4.73-14.46-5.3-8.43-.57-15.62.87-16.06,3.23Z" fill="#262626"/><path d="M158.52,217.17c-11.51,0-19.09,11.94-19.09,24.73s7.54,26.04,20.79,30.57c3.13,1.07,9.18,1.7,13.52,1.18-4.72-18.35-5.94-38.2-6.18-55.71-2.47-.5-5.44-.77-9.04-.77Z" fill="url(#linear-gradient)"/><path d="M340.8,217.17c-3.6,0-6.57.27-9.04.77-.25,17.51-1.46,37.37-6.18,55.71,4.34.51,10.39-.11,13.52-1.18,13.25-4.53,20.79-17.78,20.79-30.57s-7.58-24.73-19.09-24.73Z" fill="url(#linear-gradient-2)"/><path d="M249.66,335.45c-9.93,0-18.65-1.27-26.33-3.57-.06,13.07-.13,26.14-.19,39.21,9.29,17.13,18.58,34.27,27.88,51.4,9.02-17.13,18.04-34.27,27.06-51.4.17-13.34.34-26.68.51-40.03-8.29,2.83-17.86,4.39-28.92,4.39Z" fill="url(#linear-gradient-3)"/></g></g></g></g></g></svg>