<?xml version="1.0" encoding="UTF-8"?><svg id="Layer_2" xmlns="http://www.w3.org/2000/svg" width="500" height="500" viewBox="0 0 500 500"><g id="Layer_1-2"><g id="wings-details"><path d="M257.59,500h159.38c.09-2.37.03-5.9-.75-11.88-1.78-13.62-7.29-21.48-15.18-28.02,56.53-12.34,56.71-52.68,69.74-108.63,4.26-18.33,15.68-58.37,15.07-74.22-2.18-58.2-78.39-36.58-114.98-11.54-10.2,6.98-16.4,12.53-24.92,19.46-4.14,3.35-7.76,7.02-11.67,11.02-2.02,2.06-3.17,3.57-5.25,5.59-1.91,1.85-4.32,3.67-6.06,5.76-22.44,27.23-38.01,46.96-53.85,80.23-4.63,9.74-14.22,22.41-17.63,32.03,1.51,32.07.24,33.94,3.87,70.98.25-.76,1.43,5.75,2.23,9.2Z" fill-rule="evenodd"/><path d="M449.48,250.69c-3.47,1.42-6.35,3.93-6.85,9.68,1.55,10.31,6.59,17.29,12.35,21.26,34.72,17.82,21.26-41.89-5.5-30.94Z" fill="#a8a4d0" fill-rule="evenodd"/><path d="M450.44,318.02c-1.75.72-3.21,1.99-3.46,4.89.78,5.21,3.33,8.73,6.24,10.74,17.54,9.01,10.74-21.16-2.78-15.63Z" fill="#a8a4d0" fill-rule="evenodd"/><path d="M443.76,359.14c.23,1.37.91,2.62,2.96,3.27,3.87.27,6.81-1,8.72-2.77,9.26-11.16-13.49-11.09-11.67-.49Z" fill="#a8a4d0" fill-rule="evenodd"/><path d="M97.97,460.75c-7.86,6.57-13.33,14.46-15.06,28.09-.68,5.41-.78,8.8-.72,11.16h159.41c.78-3.47,1.93-9.93,2.18-9.17,3.47-37.06,2.19-38.93,3.56-71-3.45-9.61-13.1-22.24-17.77-31.96-15.97-33.2-31.64-52.87-54.19-80-1.74-2.08-4.17-3.9-6.08-5.74-2.09-2.01-3.25-3.51-5.28-5.57-3.92-3.99-7.56-7.64-11.71-10.97-8.56-6.9-14.78-12.42-25.01-19.35-36.69-24.88-113-46.17-114.94,12.03-.53,15.85,11.06,55.84,15.4,74.16,13.27,55.89,13.62,96.23,70.21,108.33Z" fill-rule="evenodd"/><path d="M48.64,251.56c3.47,1.4,6.37,3.9,6.89,9.65-1.5,10.32-6.52,17.32-12.26,21.32-34.64,17.97-21.44-41.79,5.37-30.96Z" fill="#a8a4d0" fill-rule="evenodd"/><path d="M47.97,318.89c1.76.71,3.22,1.97,3.48,4.88-.76,5.22-3.29,8.75-6.19,10.77-17.5,9.08-10.83-21.12,2.71-15.65Z" fill="#a8a4d0" fill-rule="evenodd"/><path d="M54.83,359.97c-.23,1.37-.9,2.63-2.95,3.28-3.87.29-6.81-.97-8.72-2.73-9.31-11.13,13.44-11.15,11.67-.55Z" fill="#a8a4d0" fill-rule="evenodd"/></g><g id="wings-color"><path d="M420.22,408.05c-4.82,10.86-11.24,20.93-20.4,28.45-11.45,9.4-27.57,10.3-41.69,11.6-19.2,1.77-38.87,2.16-58.12,1.15-10.01-.53-20.37-1.38-29.85-4.6,16.4-9.12,35.37-13.64,52.59-20.71,10.89-4.48,21.39-10.2,31.08-17.03,5.89-1.7,11.78-3.36,17.74-4.79h0c11.83-2.83,24.3-.56,35.95,2.04,3.37.75,7.91,2.45,12.7,3.9Z" fill="#e85b85" fill-rule="evenodd"/><path d="M436.97,346.29c-2.9,16.97-6.74,31.9-8.46,38-1.55,5.49-3.3,11.1-5.37,16.6-1.73-.54-3.41-1.09-5.02-1.56-8.57-2.52-17.52-4.33-26.43-4.99-9.9-.73-18.91,1.38-27.62,4.63,2.75-2.32,5.45-4.71,8.01-7.23,7.59-7.47,13.71-15.99,19.31-24.87,8.13-5.64,17.13-10.35,24.74-14.44,6.82-3.65,13.46-5.77,20.83-6.15Z" fill="#e85b85" fill-rule="evenodd"/><path d="M437.92,287.41c4.34,13.14,2.93,34.07-.05,53.38-9.37.98-18.25,4.08-27.06,9.32-5.1,3.03-10.49,6.63-15.66,10.68,4.12-6.86,8.05-13.84,12.23-20.65.8-1.31,1.65-2.63,2.51-3.95,2.01-2.25,4.05-4.47,6.07-6.68,6.97-7.64,10.59-18.44,14.53-27.77,2.1-4.97,4.6-9.75,7.44-14.32Z" fill="#e85b85" fill-rule="evenodd"/><path d="M339.52,328.28c9.51-9.16,19.34-18,31.69-28.05,13.87-11.28,31.38-24.85,49.97-26.01,5.57-.35,9.71,1.66,12.7,5.36-1.93,3.24-3.69,6.62-5.3,10.12-1.11,2.43-2.11,4.9-3.06,7.39-8.01,3-15.45,7.19-23.86,9.39-10.91,2.85-21.77,5.46-32.5,9.01-10.14,3.35-20.06,7.74-29.64,12.79Z" fill="#e85b85" fill-rule="evenodd"/><path d="M274.67,400.26h0c9.78-15.03,21.96-28.49,34.44-41.29,4.52-4.64,8.73-8.97,12.77-13.1l.34-.22c17.55-11.45,36.63-19.56,55.82-27.76,9.17-3.93,18.46-7.57,27.97-10.57,4.49-1.41,8.43-3.21,12.6-5.4.73-.39,3.74-2.29,6.34-3.31-3.26,8.74-5.95,17.72-10.02,26.16-.74,1.54-1.56,3.04-2.43,4.49-3.91,5.29-7.87,10.43-11.23,15.44-11.53,17.17-22.87,33.88-38.4,47.8-14.98,13.43-33.34,23.13-52.13,29.99-9.4,3.43-18.84,6.62-27.96,10.76-5.31,2.4-9.62,5.57-13.87,9-.6-1.69-1.28-3.34-2.06-4.97-2.09-4.36-2.38-4.84-6.27-8.47,2.85-10.23,8.49-19.95,14.08-28.55Z" fill="#f39c2f" fill-rule="evenodd"/><path d="M334.78,482.52c3.4-.25,6.8-.59,10.2-1,1.2-.32,2.41-.63,3.61-.94-15.01-8.21-33.33-10.65-49.2-10.3,2.46.29,4.9.61,7.28,1.04,9.79,1.76,19.22,6.09,28.1,11.21Z" fill="#a8a4d0"/><path d="M337.76,484.28c4.1,2.47,8.08,5.07,11.9,7.62,4.1,2.73,8.24,5.41,12.37,8.1h7.44c-4.43-7.17-10.25-12.76-16.88-17.05-4.47.42-8.95.79-13.46,1.03-.45.1-.91.2-1.36.3Z" fill="#a8a4d0"/><path d="M299.68,500c-6.74-6.58-14.23-12.4-21.62-18.64-2.55-2.15-4.83-4.57-7.07-7.03-2.35,6.93.62,16.04,6.86,25.67h21.84Z" fill="#a8a4d0"/><path d="M302.75,500h49.57c-.48-.31-.96-.63-1.44-.96-7.86-5.33-15.75-10.79-24.19-15.16-9.24-4.78-18.63-6.88-28.64-9.33-3.29-.81-6.51-1.79-9.63-2.93-2.65.41-11.1,1.01-13.32,1.53,1.09,1.21,2.18,2.43,3.31,3.62,7.65,8.12,16.69,15.06,24.36,23.22Z" fill="#a8a4d0"/><path d="M383.53,482.45c-2.5,2.82-1,8.25,3.37,12.14,4.37,3.89,9.94,4.76,12.45,1.94,2.51-2.82,1-8.25-3.37-12.14-4.37-3.89-9.94-4.76-12.45-1.94Z" fill="#e85b85" fill-rule="evenodd"/><path d="M78.58,408.78c4.87,10.84,11.33,20.88,20.52,28.36,11.49,9.35,27.62,10.18,41.74,11.42,19.21,1.69,38.88,1.99,58.12.9,10.01-.57,20.37-1.47,29.83-4.73-16.43-9.05-35.43-13.48-52.68-20.48-10.91-4.43-21.43-10.11-31.15-16.89-5.89-1.67-11.79-3.31-17.76-4.72h0c-11.85-2.78-24.31-.45-35.94,2.2-3.37.77-7.89,2.48-12.68,3.95Z" fill="#e85b85" fill-rule="evenodd"/><path d="M61.56,347.09c2.98,16.95,6.87,31.87,8.62,37.96,1.57,5.49,3.34,11.08,5.44,16.58,1.72-.55,3.41-1.1,5.01-1.58,8.56-2.56,17.5-4.4,26.41-5.1,9.9-.77,18.92,1.31,27.64,4.52-2.76-2.31-5.47-4.69-8.04-7.19-7.62-7.44-13.78-15.93-19.42-24.79-8.15-5.61-17.17-10.28-24.81-14.33-6.84-3.62-13.48-5.71-20.85-6.06Z" fill="#e85b85" fill-rule="evenodd"/><path d="M60.36,288.22c-4.28,13.16-2.78,34.08.28,53.38,9.38.94,18.26,4,27.11,9.2,5.12,3.01,10.51,6.59,15.71,10.61-4.14-6.84-8.11-13.8-12.32-20.6-.81-1.31-1.66-2.62-2.53-3.94-2.02-2.24-4.07-4.45-6.1-6.66-7-7.61-10.67-18.4-14.65-27.71-2.12-4.96-4.64-9.73-7.49-14.29Z" fill="#e85b85" fill-rule="evenodd"/><path d="M158.94,328.66c-9.55-9.12-19.42-17.92-31.81-27.91-13.92-11.22-31.48-24.71-50.08-25.8-5.57-.33-9.7,1.7-12.68,5.41,1.94,3.23,3.72,6.6,5.34,10.1,1.12,2.42,2.13,4.89,3.09,7.38,8.03,2.97,15.48,7.12,23.91,9.29,10.92,2.81,21.8,5.37,32.53,8.87,10.15,3.31,20.1,7.65,29.7,12.66Z" fill="#e85b85" fill-rule="evenodd"/><path d="M224.1,400.36h0c-9.84-14.98-22.08-28.39-34.62-41.14-4.54-4.62-8.77-8.94-12.83-13.04l-.34-.22c-17.6-11.37-36.72-19.41-55.93-27.53-9.19-3.89-18.49-7.49-28.01-10.44-4.49-1.39-8.45-3.18-12.62-5.35-.73-.38-3.74-2.27-6.36-3.29,3.3,8.73,6.03,17.7,10.13,26.12.75,1.54,1.58,3.03,2.45,4.48,3.93,5.27,7.92,10.4,11.3,15.39,11.61,17.12,23.01,33.78,38.6,47.63,15.04,13.36,33.44,22.98,52.26,29.76,9.41,3.39,18.86,6.54,28,10.64,5.32,2.38,9.64,5.53,13.91,8.94.59-1.69,1.26-3.35,2.04-4.97,2.07-4.37,2.36-4.85,6.23-8.5-2.89-10.22-8.58-19.91-14.21-28.49Z" fill="#f39c2f" fill-rule="evenodd"/><path d="M199.73,500h21.7c6.14-9.62,9.04-18.69,6.67-25.58-2.23,2.47-4.51,4.9-7.05,7.07-7.28,6.2-14.67,12-21.32,18.52Z" fill="#a8a4d0"/><path d="M148.32,499.48c-.26.18-.52.35-.78.52h49.13c7.59-8.1,16.5-15.02,24.04-23.1,1.12-1.2,2.21-2.42,3.29-3.64-2.22-.51-10.67-1.08-13.32-1.48-3.13,1.16-6.33,2.16-9.62,2.97-10,2.49-19.39,4.63-28.6,9.45-8.43,4.41-16.29,9.9-24.13,15.27Z" fill="#a8a4d0"/><path d="M164.33,482.88c8.86-5.15,18.27-9.52,28.06-11.33,2.39-.44,4.82-.77,7.28-1.07-15.87-.27-34.18,2.24-49.15,10.52,1.21.3,2.41.61,3.61.92,3.4.39,6.79.72,10.2.96Z" fill="#a8a4d0"/><path d="M137.9,500c3.88-2.55,7.76-5.09,11.6-7.67,3.81-2.56,7.78-5.18,11.87-7.67-.46-.1-.91-.2-1.37-.3-4.51-.22-8.98-.57-13.46-.97-6.46,4.22-12.14,9.66-16.5,16.61h7.86Z" fill="#a8a4d0"/><path d="M115.59,483.03c2.52,2.81,1.03,8.25-3.32,12.16-4.35,3.9-9.92,4.8-12.44,1.99-2.52-2.81-1.03-8.25,3.32-12.16,4.35-3.91,9.92-4.8,12.44-1.99Z" fill="#e85b85" fill-rule="evenodd"/></g><rect id="Layer_1-3" width="500" height="500" fill="none"/></g></svg>