<?xml version="1.0" encoding="UTF-8"?><svg id="Layer_2" xmlns="http://www.w3.org/2000/svg" width="500" height="500" viewBox="0 0 500 500"><g id="Layer_1-2"><path d="M422.59,500c-1.6-6.6-4.67-13.75-9.48-21.42-12.69-20.25-27.51-40.39-48.74-51.32-11.95-6.15-26.41-8.48-39.51-6.09-10.19,1.86-19.55,6.57-26.28,14.56-10.19,12.1-12.03,27.96-9.37,43.86-1.24-1.72-2.55-3.38-3.96-4.93-6.94-7.68-15.88-13.16-26.22-14.68-12.57-1.84-24.38,2.18-34.82,9.35-.82-7.67-3.44-15-8.21-21.28-16.22-21.33-48.23-21.67-74.25-15.27-33.47,8.23-52.73,38.75-56.07,67.23h336.91Z" fill="#fda402"/><path d="M313.23,298.6c-12.31,23.8-33.63,47.69-60.36,45.86-10.42-.71-19.76-5.49-27.27-12.61-9.66-9.16-16.32-22.21-18.41-35.49-3.71-23.59,3.79-47.44,12.64-69.64,33.76-84.65,128.75,3.5,93.39,71.88Z" fill="#fda402"/><path d="M367.67,370.74c-25.45,8.38-57.4,10.51-75.21-9.5-6.94-7.8-10.27-17.75-10.64-28.1-.49-13.31,3.89-27.29,11.69-38.23,13.86-19.45,35.92-31.23,57.78-40.88,83.36-36.83,89.5,92.63,16.38,116.71Z" fill="#fda402"/><path d="M146.37,358.93c24.5,10.84,49.64,30.67,49.44,57.46-.08,10.45-4.28,20.05-10.94,27.99-8.56,10.2-21.18,17.64-34.3,20.53-23.32,5.14-47.59-.9-70.28-8.39-86.55-28.55-4.33-128.73,66.08-97.59Z" fill="#fda402"/><path d="M363.1,447.9c-25.27-8.92-51.86-26.76-53.72-53.48-.73-10.42,2.72-20.32,8.75-28.74,7.75-10.83,19.76-19.22,32.62-23.11,22.86-6.92,47.51-2.76,70.71,2.95,88.49,21.8,14.23,128.01-58.36,102.39Z" fill="#fda402"/><path d="M212.67,298.29c10.06,24.83,14.31,56.57-4.47,75.67-7.32,7.45-17.03,11.43-27.33,12.49-13.25,1.37-27.48-2.07-38.92-9.12-20.33-12.54-33.55-33.76-44.64-54.92-42.3-80.72,86.46-95.47,115.36-24.12Z" fill="#fda402"/><path d="M87.7,420.77c.08,0,.17,0,.25,0l138.09-5.39-91.02,84.62h18.43l91.34-84.91-5.23,84.91h12.57l4.84-78.63,89.19,78.63h18.97l-97.81-86.23,130.63-5.1c3.46-.13,6.16-3.05,6.02-6.51-.13-3.38-2.91-6.03-6.27-6.03-.08,0-.17,0-.25,0l-138.09,5.39,101.21-94.1c2.54-2.36,2.68-6.33.32-8.87-2.36-2.54-6.33-2.68-8.87-.32l-92.8,86.28,7.92-128.54c.21-3.46-2.42-6.44-5.88-6.65-3.48-.21-6.44,2.42-6.65,5.88l-8.61,139.79-110.22-97.17c-2.6-2.29-6.56-2.04-8.86.56-2.29,2.6-2.04,6.56.56,8.86l108.01,95.23-148.06,5.78c-3.46.13-6.16,3.05-6.02,6.51.13,3.38,2.91,6.03,6.27,6.03Z" fill="#e99702"/><path d="M329.45,357.53c26.7,42.34,14.02,98.31-28.32,125.01-42.34,26.7-98.31,14.02-125.01-28.32-26.7-42.34-14.02-98.31,28.32-125.01,42.34-26.7,98.31-14.02,125.01,28.32Z" fill="#e35524"/><path d="M252.89,470.87c-21.6,0-42.75-10.74-55.1-30.32-19.12-30.32-10.01-70.55,20.32-89.67,30.32-19.12,70.55-10.01,89.67,20.31h0c19.12,30.32,10.01,70.55-20.32,89.67-10.74,6.77-22.73,10-34.57,10ZM252.69,347.15c-10.71,0-21.53,2.92-31.24,9.04-27.4,17.28-35.63,53.62-18.35,81.02,17.28,27.4,53.62,35.63,81.01,18.35,13.27-8.37,22.49-21.41,25.96-36.71,3.47-15.3.77-31.04-7.6-44.31h0c-11.16-17.69-30.27-27.39-49.78-27.39Z" fill="#ff642c"/><path d="M252.84,442.64c-12.22,0-24.18-6.07-31.17-17.15-5.24-8.31-6.93-18.16-4.76-27.74s7.94-17.74,16.25-22.98c8.31-5.24,18.16-6.93,27.74-4.76,9.58,2.17,17.74,7.94,22.98,16.25,5.24,8.31,6.93,18.16,4.76,27.74-2.17,9.58-7.94,17.74-16.25,22.98-6.08,3.83-12.86,5.66-19.56,5.66ZM252.73,375.36c-5.69,0-11.28,1.6-16.21,4.71-6.89,4.35-11.68,11.12-13.48,19.06-1.8,7.95-.4,16.12,3.95,23.01,8.97,14.23,27.84,18.5,42.07,9.53,6.89-4.35,11.68-11.12,13.48-19.06,1.8-7.95.4-16.12-3.95-23.01h0c-4.35-6.89-11.12-11.68-19.06-13.48-2.26-.51-4.54-.76-6.8-.76Z" fill="#ff642c"/></g></svg>