<?xml version="1.0" encoding="UTF-8"?><svg id="Layer_2" xmlns="http://www.w3.org/2000/svg" width="500" height="500" viewBox="0 0 500 500"><g id="Layer_1-2"><path d="M43.65,485.32c4.95,5.41,9.99,10.29,15.11,14.68h369.06c13.04-7.37,21.31-14.02,21.31-14.02-27.56-35.47-61.47-42.09-61.47-42.09,65.68-29.79,93.19-118.87,93.19-118.87-62.74-29.64-132.84-6.35-132.84-6.35,19.47-83.85-15.9-156.4-15.9-156.4-78.85,30.86-104.63,110.2-104.63,110.2-41.7-60.37-123.29-83-123.29-83-28.4,83.67,18.33,161,18.33,161-36.59-22.85-76.29-10.72-76.29-10.72,2,72.51,62.66,113.06,62.66,113.06-48.52-.86-65.24,32.49-65.24,32.49Z" fill="#46642f"/><path d="M427.82,500c13.04-7.37,21.31-14.02,21.31-14.02-27.56-35.47-61.47-42.09-61.47-42.09,65.68-29.79,93.19-118.86,93.19-118.86-62.74-29.64-132.84-6.35-132.84-6.35,19.47-83.85-15.9-156.4-15.9-156.4,0,0-34.6,178.36-100.12,337.72h195.83Z" fill="#2c4626"/><path d="M267.69,407.96c-.35-.11-.69-.27-1-.49-75.93-52.61-130.07-167.53-130.6-168.69-.85-1.83-.06-4,1.77-4.85,1.83-.86,4-.06,4.85,1.77.53,1.14,53.86,114.3,128.15,165.77,1.66,1.15,2.07,3.42.92,5.08-.93,1.34-2.59,1.87-4.08,1.41Z" fill="#7e934f"/><path d="M286.19,366.96c-1.72-.53-2.82-2.25-2.52-4.08.32-1.99,2.2-3.34,4.19-3.01,70.41,11.5,151.77-19.52,152.59-19.84,1.88-.73,4,.21,4.72,2.08.73,1.88-.2,4-2.08,4.72-3.4,1.32-83.99,32.06-156.4,20.23-.17-.03-.33-.07-.49-.11Z" fill="#7e934f"/><path d="M230.55,452.96c-72.92-22.51-149.15-77.86-149.96-78.45-1.63-1.19-1.98-3.47-.79-5.1,1.19-1.63,3.48-1.98,5.1-.79.85.62,86.16,62.5,161.49,81.19,2,.52,3.15,2.46,2.66,4.42-.48,1.96-2.47,3.15-4.42,2.66-4.66-1.16-9.37-2.47-14.08-3.93Z" fill="#7e934f"/><path d="M400.99,485.45c-23.56-7.27-99.25-34.38-128.62-90.01-.94-1.78-.26-3.99,1.52-4.93,1.78-.94,3.99-.26,4.93,1.52,32.75,62,130,88.12,131,88.38,1.96.44,3.12,2.51,2.6,4.46-.51,1.95-2.51,3.11-4.46,2.6-.59-.15-3.06-.82-6.98-2.02Z" fill="#7e934f"/><path d="M300.12,295.36c-.73-.22-1.39-.68-1.87-1.34-16.8-23.14-19.94-62.25-20.07-63.9-.15-2.01,1.35-3.76,3.36-3.92,2.01-.15,3.77,1.36,3.92,3.36.03.38,3.12,38.71,18.69,60.17,1.19,1.63.82,3.91-.81,5.1-.97.7-2.16.86-3.22.53Z" fill="#7e934f"/><path d="M313.2,264.36c-1.1-.34-2.02-1.19-2.4-2.37-.62-1.92.44-3.98,2.36-4.59,12.07-3.89,24.37-14.56,24.49-14.67,1.52-1.33,3.83-1.18,5.15.34,1.33,1.52,1.17,3.82-.34,5.15-.55.48-13.53,11.77-27.07,16.13-.74.24-1.5.23-2.19.01Z" fill="#7e934f"/><path d="M163.05,289.23c-24.6-7.6-43.37-17.95-44.16-18.39-1.76-.98-2.4-3.2-1.42-4.96.98-1.76,3.2-2.39,4.96-1.42.18.1,18.92,10.43,42.77,17.79,1.93.6,3.01,2.64,2.41,4.56s-2.64,3.01-4.56,2.41Z" fill="#7e934f"/><path d="M196.06,329.79c-1.86-.57-2.95-2.52-2.45-4.42,6.54-24.82.48-56.3.41-56.61-.39-1.97.9-3.89,2.88-4.28,1.97-.39,3.9.9,4.28,2.88.27,1.35,6.45,33.45-.52,59.88-.51,1.95-2.51,3.12-4.46,2.6-.05-.01-.1-.03-.15-.04Z" fill="#7e934f"/><path d="M164.52,371.44c-1.83-.57-2.93-2.47-2.46-4.36.48-1.96,2.45-3.16,4.41-2.67.36.09,36.23,8.74,58.14,2.24,1.94-.57,3.97.53,4.54,2.46.58,1.93-.53,3.96-2.46,4.54-23.81,7.07-60.41-1.77-61.96-2.15-.07-.02-.14-.04-.21-.06Z" fill="#7e934f"/><path d="M312.15,367.97c-.4-.12-.79-.32-1.15-.59-1.6-1.22-1.9-3.52-.67-5.12,9.79-12.77,23.13-26.4,23.7-26.97,1.41-1.44,3.71-1.45,5.16-.05,1.44,1.41,1.46,3.72.05,5.16-.14.14-13.59,13.89-23.12,26.3-.96,1.25-2.56,1.7-3.97,1.27Z" fill="#7e934f"/><path d="M361.87,365.8c-.21-.07-.42-.15-.63-.26-1.78-.94-2.47-3.15-1.52-4.93,4.38-8.32,22.86-29.44,23.65-30.34,1.32-1.51,3.63-1.68,5.15-.34,1.51,1.33,1.67,3.63.34,5.15-5.19,5.92-19.37,22.65-22.68,28.93-.83,1.58-2.66,2.29-4.3,1.79Z" fill="#7e934f"/><path d="M382.8,405.06c-25.02-7.73-43.61-33.9-44.42-35.06-1.15-1.65-.75-3.92.89-5.08,1.64-1.15,3.93-.76,5.08.89.19.27,19.37,27.35,43.28,33.01,1.9.5,3.17,2.44,2.7,4.4-.47,1.96-2.44,3.17-4.4,2.7-1.05-.25-2.09-.54-3.13-.86Z" fill="#7e934f"/><path d="M424.07,374.43c-13.17-4.06-25.27-12.35-25.87-12.76-1.66-1.15-2.07-3.42-.93-5.08,1.14-1.66,3.43-2.06,5.08-.93.16.11,16.34,11.19,30.38,13.33,1.98.34,3.36,2.17,3.05,4.16-.31,1.99-2.17,3.36-4.16,3.05-2.5-.38-5.05-1.01-7.55-1.78Z" fill="#7e934f"/><path d="M244.82,387.47c-1.71-.53-2.81-2.24-2.53-4.06,3.61-22.71.52-70.37.48-70.85-.13-2.01,1.39-3.75,3.4-3.88,2-.13,3.75,1.39,3.88,3.4.13,1.99,3.18,48.96-.55,72.47-.32,1.99-2.19,3.35-4.18,3.03-.17-.03-.34-.07-.51-.12Z" fill="#7e934f"/><path d="M291.59,419.43c-1.32-.41-2.35-1.55-2.54-3-.27-2,1.13-3.84,3.13-4.1,1.37-.19,33.99-4.46,59.52,3.43,1.93.6,3.01,2.64,2.41,4.56s-2.64,3.01-4.56,2.41c-24.01-7.41-56.07-3.21-56.39-3.17-.54.08-1.07.02-1.56-.13Z" fill="#7e934f"/><path d="M312.2,488.85c-.85-.26-1.61-.84-2.09-1.68-12.21-21.36-8.64-52.46-8.48-53.77.24-2,2.05-3.43,4.05-3.19,1.99.26,3.43,2.06,3.19,4.05-.03.3-3.42,30.04,7.58,49.28,1,1.75.39,3.98-1.36,4.98-.91.52-1.96.6-2.89.32Z" fill="#7e934f"/><path d="M339.92,457.7c-1.28-.4-2.3-1.48-2.53-2.89-.33-1.99,1.02-3.87,3-4.2.91-.15,22.4-3.7,33.83-4.84,1.98-.2,3.79,1.26,3.99,3.27.2,2-1.26,3.79-3.27,3.99-11.19,1.11-33.14,4.74-33.36,4.77-.58.09-1.15.05-1.67-.11Z" fill="#7e934f"/><path d="M370.25,500h9.07c-.15-.99-.7-1.91-1.6-2.5-3.46-2.25-8.94-17.05-12.04-29.46-.49-1.96-2.46-3.14-4.42-2.66-1.96.49-3.15,2.47-2.66,4.42,1,4.02,5.65,21.74,11.65,30.19Z" fill="#7e934f"/><path d="M384.53,479.65c-1.08-.33-2-1.17-2.39-2.33-.64-1.91.39-3.98,2.3-4.62.67-.23,16.54-5.56,24.17-7.33,1.96-.45,3.92.77,4.38,2.73.45,1.96-.77,3.93-2.73,4.38-7.29,1.69-23.34,7.08-23.5,7.14-.75.25-1.53.25-2.24.03Z" fill="#7e934f"/><path d="M106.18,390.21c-1.14-.35-2.09-1.26-2.44-2.5-3.01-10.68-7.72-25.5-7.77-25.65-.61-1.92.45-3.97,2.37-4.59,1.93-.61,3.97.45,4.59,2.37.05.15,4.79,15.08,7.84,25.89.55,1.94-.58,3.95-2.52,4.5-.7.2-1.41.18-2.06-.02Z" fill="#7e934f"/><path d="M87.9,417.26c-1.5-.46-2.58-1.86-2.57-3.5.01-2.02,1.65-3.64,3.67-3.64.32,0,32.15.09,46.56-5.41,1.88-.73,3.99.22,4.71,2.11s-.22,3.99-2.11,4.71c-15.68,5.99-47.83,5.9-49.19,5.9-.37,0-.72-.06-1.06-.16Z" fill="#7e934f"/><path d="M171.93,426.86c-1.57-.49-2.67-2-2.56-3.72.86-13.43-8.25-40.67-8.35-40.94-.64-1.91.38-3.98,2.29-4.63,1.91-.63,3.98.39,4.63,2.29.39,1.17,9.67,28.88,8.72,43.74-.13,2.01-1.86,3.54-3.88,3.41-.29-.02-.58-.07-.85-.16Z" fill="#7e934f"/><path d="M143.56,460.14c-1.29-.4-2.3-1.49-2.53-2.91-.32-1.99,1.04-3.86,3.03-4.18.43-.07,43.05-6.96,56.71-15.44,1.72-1.06,3.97-.53,5.03,1.18,1.06,1.71.54,3.96-1.18,5.03-14.9,9.25-57.6,16.15-59.41,16.44-.57.09-1.13.05-1.65-.11Z" fill="#7e934f"/><path d="M232.86,452.68c-1.61-.5-2.71-2.06-2.55-3.81,1.31-14.8-10.61-41.61-10.73-41.88-.83-1.84,0-4,1.84-4.82,1.84-.83,4,0,4.82,1.84.53,1.17,12.81,28.84,11.34,45.51-.18,2.01-1.95,3.49-3.95,3.31-.27-.02-.52-.07-.76-.15Z" fill="#7e934f"/><path d="M90.68,492.26c.67.27,4.93,1.99,11.99,4.17,3.6,1.11,7.95,2.34,12.9,3.57h120.82c3.36-7.61,6.65-15.29,9.83-23.03,3.21,8.42,7.07,16.07,11.36,23.03h8.66c-1.5-2.25-2.95-4.59-4.35-7,7.63,1.03,20.3,3.2,29.3,7h10.26c.29-1.45-.32-2.99-1.65-3.81-12.05-7.44-35.48-10.37-42.1-11.07-2.79-5.71-5.26-11.83-7.33-18.41,50.36-126.24,77.14-262.29,77.47-263.96.38-1.98-.96-3.89-2.89-4.28-1.98-.38-3.9.91-4.28,2.89-.35,1.78-31.14,158.18-88.72,290.61-16.69,5.03-33.27,7.29-48.86,7.83-6.13-8.98-21.01-27.49-21.64-28.28-1.26-1.57-3.56-1.82-5.13-.56-1.57,1.26-1.82,3.56-.56,5.13.13.16,11.53,14.35,18.46,23.83-20.61-.12-39.07-3.07-53.12-6.27-4.82-12.8-17.68-25.86-18.23-26.42-1.42-1.42-3.73-1.44-5.16-.02-1.43,1.42-1.44,3.73-.02,5.16.11.11,9.14,9.29,14.38,19.04-11.52-3.08-18.41-5.84-18.63-5.92-1.84-.73-3.99.13-4.76,2-.76,1.86.13,4,2,4.76Z" fill="#7e934f"/><rect id="Layer_1-3" width="500" height="500" fill="none"/></g></svg>