<?xml version="1.0" encoding="iso-8859-1"?>
<!-- Uploaded to: SVG Repo, www.svgrepo.com, Generator: SVG Repo Mixer Tools -->
<svg fill="#000000" height="800px" width="800px" version="1.1" id="Layer_1" xmlns="http://www.w3.org/2000/svg" xmlns:xlink="http://www.w3.org/1999/xlink" 
	 viewBox="0 0 512 512" xml:space="preserve">
<g>
	<g>
		<path d="M509.681,228.36L412.159,59.425c-0.001-0.001-0.002-0.002-0.002-0.003c-12.211-21.14-34.959-34.274-59.367-34.274h-30.415
			c-5.51,0-10.693,2.624-13.955,7.065l-35.401,48.204c-8.447,11.5-25.591,11.5-34.037,0l-35.402-48.204
			c-3.262-4.442-8.443-7.065-13.955-7.065h-30.415c-24.408,0-47.156,13.133-59.37,34.278L2.32,228.36
			c-4.779,8.281-1.937,18.873,6.339,23.651l83.751,48.344c6.526,3.768,14.487,2.803,19.908-1.829v171.014
			c0,9.562,7.752,17.314,17.314,17.314h252.737c9.562,0,17.314-7.752,17.314-17.314V298.526c5.42,4.631,13.383,5.596,19.908,1.83
			l83.751-48.344C511.621,247.231,514.457,236.638,509.681,228.36z"/>
	</g>
</g>
</svg>
