<?xml version="1.0" encoding="UTF-8"?><svg id="Layer_2" xmlns="http://www.w3.org/2000/svg" width="500" height="500.25" xmlns:xlink="http://www.w3.org/1999/xlink" viewBox="0 0 500 500.25"><defs><clipPath id="clippath-1"><path d="M275.87,372.58h-49.03c-6.24,0-11.29-5.06-11.29-11.29h0c0-6.24,5.06-11.29,11.29-11.29h49.03c6.24,0,11.29,5.06,11.29,11.29h0c0,6.24-5.06,11.29-11.29,11.29Z" fill="#f7d4e2"/></clipPath></defs><g id="Layer_1-2"><rect id="Layer_1-3" width="500" height="500" fill="none"/><g id="blouse-color"><path d="M92.94,500.15h314.11l-17.38-78.22c-7.87-35.43-39.3-60.64-75.6-60.64h-128.15c-36.3,0-67.72,25.21-75.6,60.64l-17.38,78.22Z" fill="#e17fc5"/></g><g id="blouse-details"><path d="M161.99,407.36c-2.84,15.52-5.63,31.23-5.45,47.12.18,15.9,3.58,32.22,11.92,44.52" fill="none" stroke="#262626" stroke-linecap="round" stroke-miterlimit="10" stroke-width="2.5"/><path d="M338.01,407.36c2.84,15.52,5.63,31.23,5.45,47.12-.18,15.9-3.58,32.22-11.92,44.52" fill="none" stroke="#262626" stroke-linecap="round" stroke-miterlimit="10" stroke-width="2.5"/><path d="M138.99,387.76c4.03-4.92,9.24-8.86,15.06-11.42" fill="#115adc" stroke="#f7d4e2" stroke-linecap="round" stroke-miterlimit="10" stroke-width="2.83"/><path d="M160.25,373.53c3.63-1.65,7.39-2.99,11.24-4.01" fill="#115adc" stroke="#f7d4e2" stroke-linecap="round" stroke-miterlimit="10" stroke-width="2.83"/><path d="M275.87,372.58h-49.03c-6.24,0-11.29-5.06-11.29-11.29h0c0-6.24,5.06-11.29,11.29-11.29h49.03c6.24,0,11.29,5.06,11.29,11.29h0c0,6.24-5.06,11.29-11.29,11.29Z" fill="#f7d4e2"/><g clip-path="url(#clippath-1)"><line x1="228.2" y1="344.84" x2="228.2" y2="385.07" fill="none" stroke="#262626" stroke-linecap="round" stroke-miterlimit="10" stroke-width="2.83"/><line x1="239.78" y1="344.84" x2="239.78" y2="385.07" fill="none" stroke="#262626" stroke-linecap="round" stroke-miterlimit="10" stroke-width="2.83"/><line x1="251.35" y1="344.84" x2="251.35" y2="385.07" fill="none" stroke="#262626" stroke-linecap="round" stroke-miterlimit="10" stroke-width="2.83"/><line x1="262.92" y1="344.84" x2="262.92" y2="385.07" fill="none" stroke="#262626" stroke-linecap="round" stroke-miterlimit="10" stroke-width="2.83"/><line x1="274.5" y1="344.84" x2="274.5" y2="385.07" fill="none" stroke="#262626" stroke-linecap="round" stroke-miterlimit="10" stroke-width="2.83"/></g><path d="M196.15,396.04s-3.57-9.53-10.17-8.09c-6.6,1.44,2.28,20.97,6.44,22.42,4.15,1.45,19.31-9.55,17.02-15.36-2.28-5.81-13.29,1.03-13.29,1.03Z" fill="#f7d4e2"/><path d="M249.51,428s-3.57-9.53-10.17-8.09c-6.6,1.44,2.28,20.97,6.44,22.42,4.15,1.45,19.31-9.55,17.02-15.36-2.28-5.81-13.29,1.03-13.29,1.03Z" fill="#f7d4e2"/><path d="M305.76,396.32s-8.02-6.27-12.9-1.59,12.89,16.7,17.19,15.77c4.3-.93,11.49-18.22,6.51-21.99-4.98-3.77-10.8,7.81-10.8,7.81Z" fill="#f7d4e2"/><path d="M368.68,446.29s-2.83-9.78-9.52-8.85c-6.69.93.67,21.08,4.7,22.85,4.03,1.77,19.98-8.04,18.15-14.01-1.83-5.97-13.33,0-13.33,0Z" fill="#f7d4e2"/><path d="M292.64,466.04s-8.02-6.27-12.9-1.59c-4.88,4.68,12.89,16.7,17.19,15.77,4.3-.93,11.49-18.22,6.51-21.99-4.98-3.77-10.8,7.81-10.8,7.81Z" fill="#f7d4e2"/><path d="M136.21,435.51s-8.09-6.19-12.92-1.46c-4.83,4.73,13.06,16.56,17.35,15.59,4.29-.97,11.3-18.34,6.28-22.06-5.02-3.72-10.71,7.93-10.71,7.93Z" fill="#f7d4e2"/><path d="M195.63,466.11s-8.09-6.19-12.92-1.46c-4.83,4.73,13.06,16.56,17.35,15.59,4.29-.97,11.3-18.34,6.28-22.06-5.02-3.72-10.71,7.93-10.71,7.93Z" fill="#f7d4e2"/></g></g></svg>