<?xml version="1.0" encoding="UTF-8"?><svg id="Layer_2" xmlns="http://www.w3.org/2000/svg" width="500" height="503.85" viewBox="0 0 500 503.85"><g id="Layer_1-2"><g id="undershirt-color"><path id="undershirt-color-2" d="M94.32,500h310.68l-17.19-77.17c-7.79-34.96-38.87-59.83-74.77-59.83-11.35.24-22.7.48-34.04.73-2.6,13.93-14.97,23.99-28.98,23.74-13.63-.24-25.42-10.2-27.94-23.74-11.93-.24-23.85-.48-35.78-.73-6.25,0-27.88.76-47.93,16.81-13.23,10.59-22.95,25.55-26.84,43.02l-17.19,77.17Z" fill="#dbdbdb"/></g><g id="vest-color"><path d="M220,500v-139.32c-31.12-1.28-70.39-1.3-91.49,24.77,3.41,16.18,6.84,32.35,10.79,48.41l-2.89-11.49c5.53,25.88,11.07,51.76,16.6,77.63h67Z" fill="#bc7d64"/><path d="M353.15,429.15l-1.18,4.7c4.24-18.27,7.96-36.65,11.93-54.97-20.83-20.28-56.49-18.85-83.89-18.2v139.32h58c5.05-23.62,10.1-47.23,15.15-70.85Z" fill="#bc7d64"/><g id="pockets-outline"><path d="M162.25,431v22.07c0,7.97,6.99,14.43,15.62,14.43h14.76c8.63,0,15.62-6.46,15.62-14.43v-22.07h-46Z" fill="none" stroke="#262626" stroke-linecap="round" stroke-miterlimit="10" stroke-width="2.8"/><rect x="158.75" y="417.5" width="53" height="13" fill="none" stroke="#262626" stroke-linecap="round" stroke-miterlimit="10" stroke-width="2.8"/><path d="M291.25,431v22.07c0,7.97,6.99,14.43,15.62,14.43h14.76c8.63,0,15.62-6.46,15.62-14.43v-22.07h-46Z" fill="none" stroke="#262626" stroke-linecap="round" stroke-miterlimit="10" stroke-width="2.8"/><rect x="287.75" y="417.5" width="53" height="13" fill="none" stroke="#262626" stroke-linecap="round" stroke-miterlimit="10" stroke-width="2.8"/></g></g><g id="details"><path d="M135.25,417.81c1.54,5.3,2.89,10.65,4.04,16.05" fill="none" stroke="#262626" stroke-linecap="round" stroke-miterlimit="10" stroke-width="2.84"/><path d="M141.15,443.57c4.24,19.62,8.48,39.23,12.73,58.85" fill="none" stroke="#262626" stroke-linecap="round" stroke-miterlimit="10" stroke-width="2.84"/><path d="M356,417.81c-1.54,5.3-2.89,10.65-4.04,16.05" fill="none" stroke="#262626" stroke-linecap="round" stroke-miterlimit="10" stroke-width="2.84"/><path d="M350.11,443.57c-4.24,19.62-8.48,39.23-12.73,58.85" fill="none" stroke="#262626" stroke-linecap="round" stroke-miterlimit="10" stroke-width="2.84"/></g><rect id="Layer_1-3" width="500" height="500" fill="none"/></g></svg>