<?xml version="1.0" encoding="UTF-8"?>
<svg id="Layer_2" xmlns="http://www.w3.org/2000/svg" version="1.1" viewBox="0 0 500 503.9">
  <!-- Generator: Adobe Illustrator 29.2.0, SVG Export Plug-In . SVG Version: 2.1.0 Build 108)  -->
  <defs>
    <style>
      .st0, .st1 {
        fill: none;
      }

      .st1 {
        stroke: #262626;
        stroke-linecap: round;
        stroke-miterlimit: 10;
        stroke-width: 2.8px;
      }

      .st2 {
        fill: #dbdbdb;
      }

      .st3 {
        fill: #c1976f;
      }
    </style>
  </defs>
  <g id="Layer_1-2">
    <g id="undershirt-color">
      <path id="undershirt-color-2" class="st2" d="M94.3,503.8h310.7l-17.2-79.3c-7.8-35.9-38.9-61.5-74.8-61.5-11.4.2-22.7.5-34,.8-2.6,14.3-15,24.7-29,24.4-13.6-.2-25.4-10.5-27.9-24.4-11.9-.2-23.9-.5-35.8-.8-6.2,0-27.9.8-47.9,17.3-13.2,10.9-22.9,26.3-26.8,44.2l-17.2,79.3h0Z"/>
    </g>
    <g id="vest-color">
      <path class="st3" d="M220,503.8v-143.1c-31.1-1.3-70.4-1.3-91.5,25.4,3.4,16.6,6.8,33.2,10.8,49.7l-2.9-11.8c5.5,26.6,11.1,53.2,16.6,79.8h67,0Z"/>
      <path class="st3" d="M353.1,431l-1.2,4.8c4.2-18.8,8-37.7,11.9-56.5-20.8-20.8-56.5-19.4-83.9-18.7v143.1h58c5-24.3,10.1-48.5,15.1-72.8h.1Z"/>
      <g id="pockets-outline">
        <path class="st1" d="M162.2,431v22.1c0,8,7,14.4,15.6,14.4h14.8c8.6,0,15.6-6.5,15.6-14.4v-22.1h-46Z"/>
        <rect class="st1" x="158.8" y="417.5" width="53" height="13"/>
        <path class="st1" d="M291.2,431v22.1c0,8,7,14.4,15.6,14.4h14.8c8.6,0,15.6-6.5,15.6-14.4v-22.1h-46Z"/>
        <rect class="st1" x="287.8" y="417.5" width="53" height="13"/>
      </g>
    </g>
    <g id="details">
      <path class="st1" d="M135.2,417.8c1.5,5.3,2.9,10.6,4,16"/>
      <path class="st1" d="M141.1,443.6c4.2,19.6,8.5,39.2,12.7,58.9"/>
      <path class="st1" d="M356,417.8c-1.5,5.3-2.9,10.6-4,16"/>
      <path class="st1" d="M350.1,443.6c-4.2,19.6-8.5,39.2-12.7,58.9"/>
    </g>
    <rect id="Layer_1-3" class="st0" width="500" height="500"/>
  </g>
</svg>